<!-- Generated by IcoMoon.io -->
<svg version="1.1" xmlns="http://www.w3.org/2000/svg" width="23" height="32" viewBox="0 0 23 32">
<title>Flag-Stamp</title>
<path d="M-3.311 16.001v-19.881h29.272v39.762h-29.272zM-0.769 34.925c0.526-0.719 0.667-0.71 1.144 0.076 0.182 0.299 0.399 0.527 0.503 0.527 0.101 0 0.367-0.265 0.591-0.59s0.468-0.59 0.54-0.59c0.072 0 0.317 0.265 0.543 0.59s0.489 0.59 0.583 0.59c0.094 0 0.311-0.213 0.482-0.474 0.539-0.822 0.649-0.833 1.169-0.117 0.515 0.711 0.719 0.726 1.092 0.082 0.234-0.403 0.467-0.662 0.601-0.668 0.045-0.002 0.291 0.268 0.545 0.6 0.543 0.71 0.746 0.708 1.141-0.015 0.137-0.25 0.314-0.484 0.394-0.521 0.205-0.095 0.483 0.112 0.674 0.503 0.203 0.415 0.491 0.641 0.707 0.554 0.091-0.037 0.292-0.276 0.448-0.531s0.346-0.493 0.422-0.529c0.198-0.092 0.479 0.121 0.667 0.506 0.363 0.743 0.745 0.751 1.162 0.024 0.145-0.253 0.329-0.49 0.409-0.527 0.213-0.099 0.477 0.111 0.71 0.568 0.353 0.691 0.686 0.693 1.072 0.007 0.439-0.781 0.777-0.782 1.175-0.001 0.342 0.669 0.55 0.662 1.084-0.037 0.254-0.332 0.514-0.604 0.579-0.604 0.13 0 0.683 0.675 0.683 0.834 0 0.165 0.384 0.364 0.565 0.293 0.092-0.036 0.273-0.254 0.403-0.485 0.447-0.796 0.694-0.793 1.173 0.013 0.171 0.288 0.389 0.524 0.485 0.524s0.373-0.265 0.616-0.59c0.575-0.767 0.586-0.766 1.136 0.089 0.178 0.276 0.405 0.501 0.505 0.501s0.347-0.239 0.549-0.531c0.202-0.292 0.413-0.531 0.47-0.531s0.267 0.106 0.467 0.236c0.2 0.13 0.385 0.236 0.411 0.236s0.117-0.164 0.202-0.364c0.156-0.364 0.155-0.365-0.241-0.808-0.506-0.565-0.508-0.843-0.006-1.268 0.6-0.509 0.613-0.81 0.063-1.395-0.588-0.626-0.591-0.89-0.016-1.381 0.591-0.504 0.59-0.835-0.003-1.375-0.574-0.523-0.574-0.806 0-1.329 0.583-0.531 0.597-0.9 0.051-1.363-0.599-0.508-0.612-0.807-0.063-1.368 0.581-0.593 0.595-0.893 0.063-1.346-0.599-0.508-0.612-0.807-0.063-1.368 0.581-0.593 0.595-0.893 0.063-1.346-0.599-0.508-0.612-0.807-0.063-1.368 0.585-0.597 0.6-0.91 0.064-1.354-0.214-0.178-0.419-0.453-0.454-0.611-0.054-0.24 0.010-0.366 0.39-0.767 0.258-0.272 0.455-0.582 0.455-0.715s-0.197-0.444-0.455-0.715c-0.38-0.4-0.444-0.527-0.39-0.767 0.036-0.158 0.24-0.433 0.454-0.611 0.535-0.444 0.52-0.758-0.064-1.354-0.55-0.561-0.536-0.86 0.063-1.368 0.522-0.443 0.512-0.733-0.048-1.341-0.6-0.652-0.587-0.764 0.178-1.541 0.331-0.336 0.331-0.668 0-1.004-0.815-0.827-0.812-0.936 0.048-1.768 0.337-0.326 0.272-0.731-0.179-1.114-0.601-0.51-0.611-0.797-0.047-1.389 0.407-0.427 0.46-0.533 0.403-0.809-0.037-0.179-0.215-0.433-0.407-0.583-0.188-0.146-0.369-0.394-0.404-0.553-0.051-0.239 0.015-0.369 0.393-0.767 0.25-0.264 0.455-0.578 0.454-0.699s-0.181-0.419-0.401-0.662l-0.4-0.442 0.167-0.39c0.163-0.382 0.162-0.394-0.064-0.607-0.483-0.456-0.659-0.42-1.162 0.238-0.255 0.334-0.504 0.607-0.552 0.607-0.137 0-0.367-0.257-0.601-0.671-0.361-0.638-0.564-0.624-1.098 0.074-0.537 0.702-0.632 0.693-1.157-0.109-0.362-0.553-0.576-0.592-0.894-0.164-0.647 0.872-0.66 0.884-0.854 0.759-0.102-0.066-0.326-0.334-0.497-0.595s-0.387-0.474-0.482-0.474c-0.094 0-0.373 0.269-0.62 0.598-0.517 0.689-0.617 0.678-1.143-0.124-0.362-0.553-0.576-0.592-0.894-0.164-0.656 0.884-0.648 0.877-0.884 0.743-0.123-0.070-0.344-0.335-0.491-0.59s-0.345-0.463-0.439-0.463c-0.094 0-0.376 0.27-0.627 0.599-0.525 0.69-0.627 0.679-1.154-0.125-0.171-0.261-0.392-0.474-0.491-0.474s-0.342 0.239-0.54 0.531c-0.464 0.684-0.715 0.698-1.086 0.058-0.421-0.725-0.667-0.741-1.147-0.075-0.489 0.679-0.718 0.701-1.087 0.106-0.497-0.801-0.695-0.817-1.136-0.093-0.442 0.726-0.738 0.727-1.15 0.005-0.401-0.706-0.649-0.706-1.086-0.004-0.447 0.717-0.721 0.718-1.137 0.004-0.389-0.667-0.67-0.702-1.032-0.128-0.577 0.914-0.731 0.927-1.226 0.099-0.391-0.653-0.648-0.661-1.068-0.030-0.339 0.51-0.519 0.564-1.026 0.308-0.367-0.186-0.454-0.143-0.615 0.299-0.105 0.288-0.085 0.339 0.27 0.684 0.513 0.498 0.499 0.773-0.070 1.372-0.38 0.4-0.444 0.527-0.39 0.767 0.036 0.158 0.24 0.433 0.454 0.611 0.527 0.438 0.513 0.728-0.064 1.336-0.55 0.58-0.537 0.878 0.062 1.387 0.533 0.452 0.518 0.752-0.063 1.346-0.55 0.561-0.536 0.86 0.063 1.368 0.519 0.441 0.534 0.848 0.044 1.251-0.657 0.542-0.669 0.96-0.040 1.487 0.535 0.448 0.534 0.86-0.003 1.317-0.626 0.535-0.615 0.922 0.042 1.463 0.477 0.393 0.471 0.794-0.019 1.238-0.662 0.601-0.676 0.841-0.077 1.373 0.592 0.527 0.593 0.859 0.004 1.443-0.241 0.239-0.439 0.534-0.439 0.655s0.198 0.416 0.439 0.655c0.575 0.57 0.575 0.846 0 1.416-0.241 0.239-0.439 0.532-0.439 0.651s0.198 0.416 0.439 0.66c0.57 0.576 0.57 0.84 0 1.416-0.241 0.244-0.439 0.536-0.439 0.649s0.198 0.405 0.439 0.649c0.566 0.572 0.595 0.966 0.096 1.339-0.66 0.493-0.674 0.958-0.044 1.462 0.537 0.43 0.537 0.856-0 1.307-0.629 0.527-0.628 0.895 0.004 1.424 0.528 0.442 0.526 0.844-0.004 1.289-0.627 0.525-0.627 0.895-0.003 1.418 0.207 0.173 0.401 0.394 0.431 0.49 0.079 0.248-0.093 0.585-0.416 0.815-0.599 0.428-0.621 0.906-0.062 1.366 0.371 0.305 0.427 0.613 0.175 0.95-0.182 0.244-0.135 0.339 0.31 0.618 0.447 0.28 0.55 0.238 1.030-0.418zM1.86 32.468c0-0.094-0.063-0.121-0.171-0.072-0.137 0.063-0.147 0.049-0.049-0.070 0.094-0.114 0.149-0.116 0.237-0.009 0.063 0.077 0.085 0.176 0.049 0.22s-0.067 0.013-0.067-0.070zM0.299 30.455c0-0.714 0.033-1.298 0.073-1.298s0.381 0.079 0.756 0.175c0.862 0.221 1.745 0.232 1.888 0.023 0.155-0.226-0.129-0.67-0.43-0.67-0.363 0-0.301-0.392 0.103-0.661 0.277-0.184 0.309-0.705 0.054-0.87-0.169-0.109-0.239-0.082-0.432 0.169-0.238 0.311-0.41 0.365-0.627 0.199-0.103-0.079-0.104-0.159-0.006-0.42 0.26-0.689 1.124-0.876 1.637-0.353 0.355 0.361 0.404 0.917 0.12 1.36-0.178 0.278-0.177 0.284 0.086 0.545l0.267 0.263 0.328-0.357c0.181-0.197 0.515-0.517 0.743-0.711s0.415-0.405 0.415-0.466c0-0.062-0.329-0.112-0.732-0.112h-0.732v-0.341c0-0.443 0.109-0.485 1.279-0.485 1.062 0 1.194 0.088 0.98 0.656l-0.108 0.287 1.535 0.004c0.947 0.003 1.871 0.076 2.413 0.191 0.483 0.102 1.581 0.206 2.439 0.229s1.583 0.049 1.61 0.056c0.027 0.007 0.268 0.006 0.537-0.003 0.54-0.018 1.828 0.399 2.73 0.884 0.545 0.293 2.269 1.511 3.611 2.552l0.585 0.454h-21.123zM8.324 30.331c0.133-0.199 0.172-0.477 0.172-1.246 0-0.977-0.003-0.99-0.244-0.99-0.238 0-0.244 0.022-0.245 0.855-0.003 0.982-0.074 1.187-0.4 1.131-0.221-0.038-0.234-0.088-0.261-1.013l-0.028-0.973h-0.578v0.891c0 0.952 0.163 1.525 0.462 1.629 0.357 0.125 0.949-0.025 1.122-0.284zM10.357 30.388c0.237-0.259 0.242-0.781 0.010-1.034-0.097-0.107-0.348-0.265-0.556-0.352s-0.395-0.22-0.416-0.296c-0.056-0.203 0.42-0.17 0.564 0.039 0.272 0.397 0.586 0.15 0.43-0.339-0.173-0.545-1.346-0.463-1.464 0.103-0.118 0.568 0.024 0.763 0.818 1.124 0.378 0.172 0.364 0.392-0.027 0.448-0.177 0.025-0.308-0.028-0.363-0.147-0.102-0.221-0.566-0.253-0.562-0.039 0.003 0.192 0.299 0.631 0.486 0.72 0.252 0.12 0.885-0.012 1.081-0.227zM11.279 30.326c0.045-0.17 0.151-0.225 0.432-0.225 0.317 0 0.382 0.045 0.434 0.295 0.044 0.213 0.127 0.295 0.298 0.295 0.13 0 0.26-0.046 0.289-0.102s-0.127-0.64-0.347-1.298c-0.372-1.112-0.418-1.195-0.671-1.195-0.281 0-0.28-0.003-1.041 2.32-0.048 0.145 0.231 0.265 0.429 0.184 0.065-0.026 0.145-0.149 0.177-0.273zM11.595 29.211c0.053-0.334 0.050-0.335 0.208 0.034 0.099 0.231 0.090 0.265-0.071 0.265-0.146 0-0.175-0.064-0.138-0.3zM20.974 25.959c-2.176-1.744-3.184-2.318-4.3-2.448l-0.652-0.076 0.182-0.472c0.228-0.591 0.183-0.609-0.907-0.362-1.357 0.307-2.368 0.248-3.931-0.233-2.723-0.837-4.164-0.513-4.823 1.084-0.58 1.407-1.045 1.781-2.041 1.644-0.58-0.079-1.92-0.525-3.326-1.105l-0.829-0.343-0.026-3.086c-0.018-2.082 0.007-3.086 0.076-3.086 0.118 0 2.597 1.552 3.157 1.976 1.209 0.916 3.332 1.464 4.221 1.090 0.339-0.143 0.362-0.182 1.31-2.299 0.175-0.389 0.388-0.806 0.473-0.927 0.621-0.873 2.649-0.976 3.936-0.199 1.109 0.67 1.861 0.714 3.919 0.229 0.531-0.125 0.984-0.207 1.005-0.181s-0.087 0.361-0.24 0.744c-0.449 1.122-0.447 1.092-0.083 1.021 0.723-0.142 2.707 0.816 3.888 1.877l0.56 0.503v2.92c0 1.606-0.017 2.92-0.041 2.92s-0.712-0.537-1.53-1.193zM7.276 16.073c-1.435-0.378-2.315-0.844-3.194-1.692-0.287-0.277-0.695-0.666-0.908-0.866-0.458-0.43-1.643-1.306-2.363-1.746l-0.512-0.314v-4.298c0-2.897 0.034-4.323 0.103-4.375 0.057-0.042 0.277 0.068 0.49 0.247s0.408 0.297 0.435 0.265c0.027-0.032-0.022-0.262-0.108-0.511-0.152-0.441-0.151-0.458 0.072-0.664 0.125-0.117 0.261-0.213 0.301-0.215s0.073-0.056 0.073-0.121c0-0.065-0.135-0.118-0.299-0.118-0.443 0-0.652-0.183-0.871-0.764-0.108-0.287-0.196-0.551-0.196-0.587 0-0.125 1.62-0.066 1.726 0.063 0.077 0.093 0.162 0.093 0.306 0 0.11-0.071 0.559-0.129 0.998-0.129 0.73 0 0.788 0.017 0.666 0.194-0.119 0.173-0.109 0.185 0.090 0.108 0.143-0.055 0.306-0.020 0.452 0.095 0.251 0.199 0.348 0.148 0.348-0.181 0-0.203 0.13-0.216 2.147-0.216 2.298 0 2.281-0.005 2 0.59-0.181 0.384-0.179 0.449 0.013 0.429 0.107-0.011 0.197 0.138 0.272 0.456 0.089 0.373 0.127 0.427 0.182 0.256 0.038-0.119 0.069-0.346 0.069-0.504 0-0.203 0.076-0.323 0.257-0.406 0.232-0.107 0.243-0.138 0.112-0.322-0.338-0.476-0.316-0.498 0.484-0.498h0.767l-0.072 0.678c-0.291 2.735-0.314 3.117-0.187 3.211 0.373 0.279 3.821 0.904 4.32 0.783 0.258-0.062 0.277-0.045 0.216 0.195-0.037 0.145-0.106 0.282-0.153 0.303s-0.085 0.090-0.085 0.153c0 0.062-0.211 0.496-0.469 0.964s-0.575 1.062-0.705 1.322l-0.235 0.472 0.241-0.209c0.604-0.523 1.096-0.697 1.851-0.654 0.846 0.048 1.531 0.378 1.484 0.716-0.039 0.281 0.364 0.273 1.165-0.022 0.519-0.192 1.819-0.573 3.62-1.063 0.201-0.055 0.366-0.072 0.366-0.039s-0.148 0.359-0.328 0.725c-0.313 0.634-1.038 2.246-1.038 2.308 0 0.016 0.187 0.033 0.415 0.038s0.535 0.065 0.683 0.134l0.268 0.125v5.426l-0.352-0.289c-0.698-0.572-1.429-0.93-2.005-0.98-0.313-0.027-0.569-0.063-0.569-0.080 0-0.042 0.664-1.829 0.8-2.154 0.061-0.146 0.089-0.293 0.061-0.326s-0.748 0.183-1.602 0.48c-2.119 0.737-3.552 0.857-3.552 0.297 0-0.297-0.148-0.421-0.834-0.7-1.224-0.498-2.391-0.206-2.971 0.744-0.161 0.264-0.878 1.719-0.878 1.783 0 0.105-0.729 1.538-0.821 1.614-0.192 0.157-1.751 0.076-2.545-0.133zM7.808 13.973c-0.045-0.24-0.064-0.47-0.043-0.511s0.216-0.171 0.433-0.29c0.463-0.252 0.497-0.384 0.127-0.483-0.712-0.19-0.739-0.217-0.859-0.858-0.063-0.339-0.14-0.646-0.17-0.682s-0.147 0.151-0.259 0.417c-0.228 0.541-0.279 0.562-0.707 0.294-0.233-0.146-0.291-0.153-0.253-0.030 0.329 1.067 0.327 1.028 0.084 1.584-0.127 0.29-0.205 0.558-0.173 0.597s0.28 0.006 0.551-0.073c0.486-0.141 0.499-0.137 0.841 0.225 0.191 0.203 0.384 0.341 0.429 0.307s0.045-0.257 0-0.498zM11.737 12.298c0.129-0.059 0.353-0.381 0.513-0.737 0.156-0.348 0.563-1.151 0.903-1.786s0.592-1.206 0.56-1.27c-0.033-0.064-0.103-0.084-0.156-0.044-0.135 0.101-1.52 0.085-1.659-0.020-0.174-0.13-1.432-0.181-1.493-0.061-0.091 0.178-0.454 3.792-0.393 3.911 0.073 0.142 1.42 0.147 1.726 0.007zM4.094 10.727c0.046-0.28 0.152-0.443 0.379-0.581l0.314-0.191-0.187-0.288c-0.154-0.237-0.179-0.421-0.14-1.048l0.047-0.76-0.764 1.025-0.414-0.255c-0.228-0.14-0.434-0.231-0.458-0.201s0.045 0.232 0.155 0.451c0.256 0.508 0.252 0.613-0.043 1.138-0.134 0.239-0.244 0.469-0.244 0.512s0.165 0.032 0.366-0.025c0.515-0.144 0.498-0.152 0.678 0.303 0.185 0.47 0.222 0.46 0.312-0.081zM6.349 8.799c0-0.086 0.088-0.189 0.195-0.23 0.214-0.082 0.259-0.407 0.085-0.616-0.081-0.098-0.081-0.231 0-0.513 0.171-0.594 0.14-0.812-0.069-0.484-0.157 0.246-0.188 0.255-0.302 0.088-0.203-0.295-0.258-0.221-0.218 0.29 0.029 0.367-0.021 0.584-0.218 0.944l-0.256 0.468h0.245c0.223 0 0.246 0.046 0.249 0.501l0.004 0.501 0.143-0.397c0.078-0.218 0.143-0.467 0.143-0.553zM8.554 7.806c-0.063-0.579-0.061-0.587 0.237-0.68 0.359-0.113 0.348-0.245-0.049-0.567-0.253-0.206-0.303-0.332-0.347-0.885-0.051-0.639-0.053-0.642-0.186-0.321-0.151 0.364-0.204 0.388-0.389 0.177-0.107-0.122-0.12-0.056-0.075 0.375 0.040 0.384 0.004 0.642-0.136 0.973l-0.19 0.451h0.27c0.221 0 0.313 0.097 0.503 0.531 0.309 0.704 0.443 0.684 0.362-0.055zM2.934 5.98c0-0.466 0.12-0.607 0.61-0.718 0.201-0.045 0.366-0.125 0.366-0.178s-0.198-0.186-0.439-0.298c-0.426-0.197-0.439-0.217-0.439-0.711 0-0.279-0.048-0.544-0.106-0.587s-0.267 0.106-0.463 0.332c-0.309 0.356-0.406 0.404-0.723 0.355-0.395-0.061-0.447 0.030-0.223 0.389 0.201 0.321 0.187 0.412-0.138 0.871-0.158 0.223-0.269 0.441-0.246 0.485s0.272 0.005 0.555-0.086l0.515-0.165 0.291 0.408c0.338 0.472 0.44 0.45 0.44-0.095zM6.301 4.257c0.057-0.406 0.109-0.487 0.35-0.546 0.346-0.084 0.352-0.156 0.040-0.511-0.212-0.24-0.244-0.379-0.244-1.042v-0.765l-0.305 0.432c-0.323 0.457-0.507 0.517-0.91 0.295-0.305-0.168-0.425-0.055-0.239 0.225 0.379 0.57 0.386 0.685 0.071 1.202-0.164 0.27-0.282 0.51-0.262 0.534s0.234-0.003 0.475-0.059c0.383-0.089 0.461-0.071 0.61 0.141 0.094 0.134 0.171 0.317 0.171 0.407 0 0.365 0.183 0.132 0.245-0.313zM8.303 2.256c0.037-0.032 0.088-0.457 0.113-0.944s0.028-0.792 0.006-0.678c-0.045 0.242-0.227 0.268-0.4 0.059-0.098-0.118-0.109-0.048-0.056 0.349 0.052 0.392 0.022 0.586-0.141 0.921-0.254 0.52-0.254 0.529-0.012 0.529 0.107 0 0.197 0.066 0.198 0.147 0.003 0.081 0.053 0.041 0.114-0.088s0.141-0.263 0.179-0.295zM19.159 3.772c-0.271-0.328-1.113-0.662-1.586-0.63-0.21 0.014-0.555 0.13-0.767 0.257l-0.386 0.231 0.429-0.991c0.236-0.545 0.429-1.053 0.429-1.129 0-0.094-0.179-0.126-0.561-0.1-0.721 0.049-3.889-0.506-4.684-0.819-0.335-0.132-0.61-0.251-0.61-0.263s2.34-0.008 5.201 0.010c2.861 0.018 5.365 0.032 5.566 0.032h0.364l-0.056 2.065-0.829 0.502c-0.456 0.276-1.115 0.587-1.464 0.691s-0.681 0.234-0.738 0.29c-0.063 0.061-0.184 0.004-0.307-0.145z"></path>
</svg>
