<!-- Generated by IcoMoon.io -->
<svg version="1.1" xmlns="http://www.w3.org/2000/svg" width="57" height="32" viewBox="0 0 57 32">
<title>Letter-Postmark</title>
<path fill="#808080" opacity="0.2416329948415698" d="M43.332 3.595c-6.718-0.96-12.949 3.713-13.909 10.432s3.713 12.949 10.432 13.909c6.718 0.96 12.949-3.713 13.909-10.432s-3.713-12.949-10.432-13.909zM43.284 3.934c6.53 0.933 11.074 6.992 10.141 13.522s-6.991 11.074-13.522 10.141c-6.53-0.933-11.074-6.991-10.141-13.522s6.992-11.074 13.522-10.141z"></path>
<path fill="#808080" opacity="0.2416329948415698" d="M43.559 0.393c-8.593-1.228-16.562 4.751-17.789 13.344s4.749 16.562 13.341 17.789c8.593 1.228 16.564-4.748 17.792-13.341s-4.751-16.565-13.343-17.792zM43.51 0.732c8.405 1.201 14.252 8.999 13.050 17.404s-8.997 14.252-17.402 13.050c-8.405-1.201-14.252-8.997-13.050-17.402s8.997-14.255 17.403-13.053z"></path>
<path fill="#808080" opacity="0.3913394015614315" d="M25.045 6.196c-0.608-0.023-1.278 0.047-1.967 0.256-1.008 0.306-1.975 1.175-2.973 2.204-0.221 0.228-0.443 0.464-0.668 0.704-0.128 0.136-0.255 0.265-0.384 0.402l1.793-0.521c-0.052 0.051-0.095 0.104-0.146 0.155l0.421-0.128c0.819-0.797 1.625-1.438 2.46-1.692 1.379-0.419 2.627-0.262 3.54 0l1.262-0.366c0 0-0.154-0.024-0.32-0.055l0.128-0.046c0 0-1.321-0.845-3.146-0.915zM20.7 9.397l-1.765 0.503c-1.388 1.471-2.886 2.951-4.674 3.494-1.937 0.588-3.555-0.086-5.433-0.631l-1.884 0.531c2.953 0.349 4.978 1.931 7.629 1.125 2.424-0.736 4.317-3.204 6.128-5.022zM6.943 13.294c-0.011-0.001-0.026 0.001-0.037 0l1.875-0.549c-0.343-0.1-0.696-0.184-1.061-0.265-0.114-0.025-0.231-0.051-0.348-0.073-1.272-0.246-2.705-0.314-4.455 0.165-1.373 0.376-2.226 0.964-2.918 1.619l0.256 1.034 0.393-0.11c0.667-0.577 1.525-1.077 2.772-1.418 1.219-0.334 2.276-0.391 3.238-0.32l0.284-0.082zM26.27 10.257c-0.608-0.023-1.268 0.038-1.957 0.247-1.008 0.306-1.975 1.175-2.973 2.204-0.221 0.228-0.443 0.473-0.668 0.713-0.128 0.136-0.255 0.265-0.384 0.402l1.793-0.521c-0.052 0.051-0.104 0.095-0.155 0.146l0.421-0.119c0.819-0.797 1.634-1.447 2.47-1.701 1.379-0.419 2.627-0.262 3.54 0l1.262-0.357c0 0-0.154-0.033-0.32-0.064l0.128-0.037c0 0-1.33-0.845-3.156-0.915zM21.925 13.449l-1.765 0.503c-1.388 1.471-2.877 2.951-4.665 3.494-1.937 0.588-3.555-0.086-5.433-0.631l-1.893 0.54c2.953 0.349 4.987 1.93 7.638 1.125 2.424-0.736 4.308-3.213 6.119-5.031zM8.168 17.355c-0.011-0.001-0.017-0.008-0.027-0.009l1.875-0.54c-0.343-0.1-0.705-0.193-1.070-0.274-0.114-0.025-0.231-0.051-0.348-0.073-1.272-0.246-2.695-0.305-4.445 0.174-1.488 0.407-2.388 1.052-3.101 1.774l0.256 1.015c0.036-0.037 0.054-0.083 0.091-0.119l0.476-0.137c0.667-0.577 1.534-1.067 2.781-1.409 1.219-0.334 2.276-0.401 3.238-0.329l0.274-0.073zM27.504 14.309c-0.608-0.023-1.268 0.038-1.957 0.247-1.008 0.306-1.975 1.175-2.973 2.204-0.221 0.228-0.452 0.473-0.677 0.713-0.128 0.136-0.255 0.265-0.384 0.402l1.802-0.521c-0.052 0.051-0.104 0.095-0.155 0.146l0.421-0.119c0.819-0.797 1.625-1.447 2.46-1.701 1.379-0.419 2.636-0.262 3.549 0l1.253-0.357c0 0-0.145-0.033-0.311-0.064l0.128-0.037c0 0-1.33-0.845-3.156-0.915zM23.159 17.502l-1.765 0.503c-1.388 1.471-2.886 2.951-4.674 3.494-1.937 0.588-3.546-0.086-5.424-0.631l-1.893 0.54c2.953 0.349 4.978 1.93 7.629 1.125 2.424-0.736 4.317-3.213 6.128-5.031zM9.402 21.407c-0.011-0.001-0.026 0.001-0.037 0l1.884-0.549c-0.343-0.1-0.705-0.193-1.070-0.274-0.114-0.025-0.231-0.042-0.348-0.064-1.272-0.246-2.695-0.314-4.445 0.165-1.594 0.436-2.553 1.132-3.284 1.921l0.265 1.079c0.095-0.104 0.161-0.219 0.265-0.32l0.476-0.137c0.667-0.577 1.525-1.077 2.772-1.418 1.219-0.334 2.276-0.391 3.238-0.32l0.284-0.082zM28.738 18.361c-0.608-0.023-1.278 0.047-1.967 0.256-1.008 0.306-1.966 1.175-2.964 2.204-0.221 0.228-0.452 0.464-0.677 0.704-0.128 0.136-0.255 0.265-0.384 0.402l1.802-0.521c-0.052 0.051-0.104 0.104-0.155 0.155l0.421-0.128c0.819-0.797 1.625-1.438 2.46-1.692 1.379-0.419 2.627-0.262 3.54 0l1.262-0.366c0 0-0.154-0.024-0.32-0.055l0.128-0.046c0 0-1.321-0.845-3.146-0.915zM24.394 21.563l-1.765 0.503c-1.388 1.471-2.886 2.951-4.674 3.494-1.937 0.588-3.546-0.086-5.424-0.631l-1.893 0.53c2.953 0.349 4.978 1.93 7.629 1.125 2.424-0.736 4.317-3.204 6.128-5.022zM10.636 25.459c-0.011-0.001-0.026 0.001-0.037 0l1.875-0.549c-0.343-0.1-0.696-0.184-1.061-0.265-0.114-0.025-0.231-0.051-0.348-0.073-1.272-0.246-2.704-0.314-4.455 0.165-1.649 0.451-2.627 1.18-3.366 2.003-0.031 0.034-0.062 0.066-0.091 0.101l0.284 1.107c0.148-0.175 0.258-0.365 0.43-0.531l0.476-0.137c0.667-0.577 1.525-1.077 2.772-1.418 1.219-0.334 2.276-0.391 3.238-0.32l0.284-0.082z"></path>
</svg>
