<!-- Generated by IcoMoon.io -->
<svg version="1.1" xmlns="http://www.w3.org/2000/svg" width="57" height="32" viewBox="0 0 57 32">
<title>Letter-Border</title>
<path fill="#808080" opacity="0.92" d="M0 0v32h56.889v-32zM1.761 1.6h53.367v28.8h-53.367z"></path>
<path fill="#ececec" opacity="0.92" d="M0 0v2.378l2.378-2.378zM4.64 0l-1.6 1.6h2.018l1.6-1.6zM8.921 0l-1.6 1.6h2.003l1.6-1.6zM13.187 0l-1.6 1.6h2.122l1.6-1.6zM17.572 0l-1.6 1.6h2.003l1.6-1.6zM21.838 0l-1.6 1.6h2.003l1.6-1.6zM26.104 0l-1.6 1.6h2.003l1.6-1.6zM30.371 0l-1.6 1.6h2.003l1.6-1.6zM34.637 0l-1.6 1.6h2.004l1.6-1.6zM38.903 0l-1.6 1.6h2.063l1.6-1.6zM43.229 0l-1.6 1.6h2.122l1.6-1.6zM47.613 0l-1.6 1.6h2.122l1.6-1.6zM51.998 0l-1.6 1.6h2.24l1.6-1.6zM56.501 0l-1.6 1.6h0.227v1.836l1.761-1.761v-1.675zM1.761 2.88l-1.761 1.761v2.018l1.761-1.761zM56.889 3.938l-1.761 1.761v2.122l1.761-1.761zM1.761 7.16l-1.761 1.761v2.003l1.761-1.761zM56.889 8.323l-1.761 1.761v2.122l1.761-1.761zM1.761 11.427l-1.761 1.761v2.122l1.761-1.761zM56.889 12.707l-1.761 1.761v2.477l1.761-1.761zM1.761 15.811l-1.761 1.761v2.003l1.761-1.761zM56.889 17.448l-1.761 1.761v2.3l1.761-1.761zM1.761 20.077l-1.761 1.761v2.003l1.761-1.761zM56.889 22.010l-1.761 1.761v2.241l1.761-1.761zM1.761 24.344l-1.761 1.761v2.003l1.761-1.761zM56.889 26.513l-1.761 1.761v2.063l1.761-1.761zM1.761 28.61l-1.761 1.761v1.629h0.374l1.6-1.6h-0.213zM4.237 30.4l-1.6 1.6h2.003l1.6-1.6zM8.503 30.4l-1.6 1.6h2.063l1.6-1.6zM12.829 30.4l-1.6 1.6h2.122l1.6-1.6zM17.213 30.4l-1.6 1.6h2.122l1.6-1.6zM21.598 30.4l-1.6 1.6h2.24l1.6-1.6zM26.101 30.4l-1.6 1.6h2.063l1.6-1.6zM30.427 30.4l-1.6 1.6h2.122l1.6-1.6zM34.811 30.4l-1.6 1.6h2.122l1.6-1.6zM39.196 30.4l-1.6 1.6h2.477l1.6-1.6zM43.936 30.4l-1.6 1.6h2.3l1.6-1.6zM48.499 30.4l-1.6 1.6h2.24l1.6-1.6zM53.002 30.4l-1.6 1.6h2.063l1.6-1.6zM56.889 30.839l-1.161 1.161h1.161z"></path>
</svg>
