<!-- Generated by IcoMoon.io -->
<svg version="1.1" xmlns="http://www.w3.org/2000/svg" width="23" height="32" viewBox="0 0 23 32">
<title>Stamp-Background</title>
<path fill="#454545" d="M19.885 8.258c0-0.472 0.368-0.865 0.855-0.952v-1.313c-0.487-0.087-0.855-0.48-0.855-0.952s0.368-0.865 0.855-0.952v-1.39h-1.090c-0.066 0.535-0.449 0.946-0.912 0.946s-0.845-0.411-0.912-0.946h-1.235c-0.066 0.535-0.449 0.946-0.912 0.946s-0.845-0.411-0.912-0.946h-1.062c-0.082 0.512-0.456 0.899-0.905 0.899s-0.823-0.387-0.905-0.899h-1.249c-0.082 0.512-0.456 0.899-0.905 0.899s-0.823-0.387-0.905-0.899h-0.979c-0.082 0.512-0.456 0.899-0.905 0.899s-0.823-0.387-0.905-0.899h-1.249c-0.082 0.512-0.456 0.899-0.905 0.899s-0.823-0.387-0.905-0.899h-1.097v1.532c0.487 0.087 0.855 0.48 0.855 0.952s-0.368 0.865-0.855 0.952v1.203c0.552 0.032 0.989 0.453 0.989 0.968s-0.437 0.936-0.989 0.968v1.19c0.531 0.052 0.945 0.464 0.945 0.964s-0.414 0.913-0.945 0.964v1.001c0.022-0.001 0.045-0.002 0.067-0.002 0.584 0 1.057 0.434 1.057 0.97s-0.473 0.97-1.057 0.97c-0.023 0-0.045-0.001-0.067-0.002v1.238c0.531 0.052 0.944 0.464 0.944 0.964s-0.414 0.913-0.945 0.964v1.341c0.509 0.070 0.9 0.473 0.9 0.959s-0.39 0.889-0.9 0.959v1.29c0.552 0.032 0.989 0.453 0.989 0.968s-0.437 0.936-0.989 0.968v1.187c0.552 0.032 0.989 0.453 0.989 0.968s-0.437 0.936-0.989 0.968v1.279h1c-0.007-0.054-0.010-0.109-0.010-0.166 0-0.614 0.413-1.112 0.922-1.112s0.922 0.498 0.922 1.112c0 0.056-0.004 0.111-0.010 0.166h1.235c-0.007-0.054-0.010-0.109-0.010-0.166 0-0.614 0.413-1.112 0.922-1.112s0.922 0.498 0.922 1.112c0 0.056-0.004 0.111-0.010 0.166h0.965c-0.007-0.054-0.010-0.109-0.010-0.166 0-0.614 0.413-1.112 0.922-1.112s0.922 0.498 0.922 1.112c0 0.056-0.004 0.111-0.010 0.166h1.235c-0.007-0.054-0.010-0.109-0.010-0.166 0-0.614 0.413-1.112 0.922-1.112s0.922 0.498 0.922 1.112c0 0.056-0.004 0.111-0.010 0.166h1.050c-0.003-0.039-0.005-0.078-0.005-0.118 0-0.614 0.413-1.112 0.922-1.112s0.922 0.498 0.922 1.112c0 0.040-0.002 0.079-0.005 0.118h1.225c-0.003-0.039-0.005-0.078-0.005-0.118 0-0.614 0.413-1.112 0.922-1.112s0.922 0.498 0.922 1.112c0 0.040-0.002 0.079-0.005 0.118h1.175v-1.283c-0.531-0.052-0.945-0.464-0.945-0.964s0.414-0.913 0.945-0.964v-1.288c-0.531-0.052-0.945-0.464-0.945-0.964s0.414-0.913 0.945-0.964v-1.146c-0.531-0.052-0.945-0.464-0.945-0.964s0.414-0.913 0.945-0.964v-1.288c-0.531-0.052-0.945-0.464-0.945-0.964s0.414-0.913 0.945-0.964v-1.099c-0.531-0.052-0.945-0.464-0.945-0.964s0.414-0.913 0.945-0.964v-1.288c-0.531-0.052-0.945-0.464-0.945-0.964s0.414-0.913 0.945-0.964v-1.206c-0.487-0.087-0.855-0.48-0.855-0.952z"></path>
<path fill="#000" d="M19.885 8.182c0-0.472 0.368-0.865 0.855-0.952v-1.313c-0.487-0.087-0.855-0.48-0.855-0.952s0.368-0.865 0.855-0.952v-1.39h-1.090c-0.066 0.535-0.449 0.946-0.912 0.946s-0.845-0.411-0.912-0.946h-1.235c-0.066 0.535-0.449 0.946-0.912 0.946s-0.845-0.411-0.912-0.946h-1.062c-0.082 0.512-0.456 0.899-0.905 0.899s-0.823-0.387-0.905-0.899h-1.249c-0.082 0.512-0.456 0.899-0.905 0.899s-0.823-0.387-0.905-0.899h-0.979c-0.082 0.512-0.456 0.899-0.905 0.899s-0.823-0.387-0.905-0.899h-1.249c-0.082 0.512-0.456 0.899-0.905 0.899s-0.823-0.387-0.905-0.899h-1.097v1.532c0.487 0.087 0.855 0.48 0.855 0.952s-0.368 0.865-0.855 0.952v1.203c0.552 0.032 0.989 0.453 0.989 0.968s-0.437 0.936-0.989 0.968v1.19c0.531 0.052 0.945 0.464 0.945 0.964s-0.414 0.913-0.945 0.964v1.001c0.022-0.001 0.045-0.002 0.067-0.002 0.584 0 1.057 0.434 1.057 0.97s-0.473 0.97-1.057 0.97c-0.023 0-0.045-0.001-0.067-0.002v1.238c0.531 0.052 0.944 0.464 0.944 0.964s-0.414 0.913-0.945 0.964v1.341c0.509 0.070 0.9 0.473 0.9 0.959s-0.39 0.889-0.9 0.959v1.29c0.552 0.032 0.989 0.453 0.989 0.968s-0.437 0.936-0.989 0.968v1.187c0.552 0.032 0.989 0.453 0.989 0.968s-0.437 0.936-0.989 0.968v1.279h1c-0.007-0.054-0.010-0.109-0.010-0.166 0-0.614 0.413-1.112 0.922-1.112s0.922 0.498 0.922 1.112c0 0.056-0.004 0.111-0.010 0.166h1.235c-0.007-0.054-0.010-0.109-0.010-0.166 0-0.614 0.413-1.112 0.922-1.112s0.922 0.498 0.922 1.112c0 0.056-0.004 0.111-0.010 0.166h0.965c-0.007-0.054-0.010-0.109-0.010-0.166 0-0.614 0.413-1.112 0.922-1.112s0.922 0.498 0.922 1.112c0 0.056-0.004 0.111-0.010 0.166h1.235c-0.007-0.054-0.010-0.109-0.010-0.166 0-0.614 0.413-1.112 0.922-1.112s0.922 0.498 0.922 1.112c0 0.056-0.004 0.111-0.010 0.166h1.050c-0.003-0.039-0.005-0.078-0.005-0.118 0-0.614 0.413-1.112 0.922-1.112s0.922 0.498 0.922 1.112c0 0.040-0.002 0.079-0.005 0.118h1.225c-0.003-0.039-0.005-0.078-0.005-0.118 0-0.614 0.413-1.112 0.922-1.112s0.922 0.498 0.922 1.112c0 0.040-0.002 0.079-0.005 0.118h1.175v-1.283c-0.531-0.052-0.945-0.464-0.945-0.964s0.414-0.913 0.945-0.964v-1.288c-0.531-0.052-0.945-0.464-0.945-0.964s0.414-0.913 0.945-0.964v-1.146c-0.531-0.052-0.945-0.464-0.945-0.964s0.414-0.913 0.945-0.964v-1.288c-0.531-0.052-0.945-0.464-0.945-0.964s0.414-0.913 0.945-0.964v-1.099c-0.531-0.052-0.945-0.464-0.945-0.964s0.414-0.913 0.945-0.964v-1.288c-0.531-0.052-0.945-0.464-0.945-0.964s0.414-0.913 0.945-0.964v-1.206c-0.487-0.087-0.855-0.48-0.855-0.952z"></path>
</svg>
