<svg xmlns="http://www.w3.org/2000/svg" viewBox="0 0 687.39 592.11"><defs><style>.cls-1{fill:#333;stroke:#333;}.cls-1,.cls-2{stroke-miterlimit:10;stroke-width:20px;}.cls-2{fill:gold;stroke:gold;}</style></defs><title>PureNOvationLogo_Serif_DarkGrey_GoldArrow</title><g id="Layer_2" data-name="Layer 2"><g id="Layer_1-2" data-name="Layer 1"><path class="cls-1" d="M154,209.11h2l60.42,97.56L289,262.36,158,49.11H14v69l45,2,1,368c0,15-5.54,23.85-17,26l-33,3v65H206v-68l-52-3Z"/><rect class="cls-1" x="254.77" y="314.23" width="84.41" height="84.74" transform="translate(-142.95 208.86) rotate(-31.65)"/><path class="cls-2" d="M574,18.11l-176,170s108-6.48,104,15c-12,65-61,222-108.43,224.2-1.57-.2-2.33-2.26-2.33-2.26L379,407.11l-70.18,43.57S347.65,522,382.34,573.76c1.93,2.87,4.66,8.35,5.66,8.35,76-5,167-294,178-357,2-32,99,58,99,58Z"/><path class="cls-1" d="M194,364.11l9.5-3.5,43,72q-26.25,13.75-52.5,17.5Z"/></g></g></svg>