<?xml version="1.0" encoding="UTF-8" standalone="no"?>
<!-- Created with Inkscape (http://www.inkscape.org/) -->

<svg
   width="648.18854"
   height="359.96765"
   viewBox="0 0 648.18854 359.96765"
   version="1.1"
   id="SVGRoot"
   inkscape:version="1.2 (56b05e47e7, 2022-06-09, custom)"
   sodipodi:docname="Cut-Out-Cylinder.svg"
   xmlns:inkscape="http://www.inkscape.org/namespaces/inkscape"
   xmlns:sodipodi="http://sodipodi.sourceforge.net/DTD/sodipodi-0.dtd"
   xmlns:xlink="http://www.w3.org/1999/xlink"
   xmlns="http://www.w3.org/2000/svg"
   xmlns:svg="http://www.w3.org/2000/svg"
   xmlns:rdf="http://www.w3.org/1999/02/22-rdf-syntax-ns#"
   xmlns:cc="http://creativecommons.org/ns#"
   xmlns:dc="http://purl.org/dc/elements/1.1/">
  <defs
     id="defs6191">
    <linearGradient
       id="linearGradient2382"
       inkscape:collect="always">
      <stop
         id="stop2376"
         offset="0"
         style="stop-color:#9b8300;stop-opacity:1" />
      <stop
         style="stop-color:#9b8300;stop-opacity:1"
         offset="0.64009047"
         id="stop2378" />
      <stop
         id="stop2380"
         offset="1"
         style="stop-color:#e4cf5d;stop-opacity:0;" />
    </linearGradient>
    <linearGradient
       inkscape:collect="always"
       xlink:href="#linearGradient2382"
       id="linearGradient5886"
       gradientUnits="userSpaceOnUse"
       x1="-308.75089"
       y1="283.80203"
       x2="-315.78214"
       y2="283.80203" />
    <linearGradient
       inkscape:collect="always"
       xlink:href="#linearGradient2382"
       id="linearGradient5918"
       gradientUnits="userSpaceOnUse"
       x1="-308.75089"
       y1="283.80203"
       x2="-315.78214"
       y2="283.80203" />
    <linearGradient
       inkscape:collect="always"
       xlink:href="#linearGradient2382"
       id="linearGradient5951"
       gradientUnits="userSpaceOnUse"
       x1="-308.75089"
       y1="283.80203"
       x2="-315.78214"
       y2="283.80203" />
  </defs>
  <sodipodi:namedview
     id="base"
     pagecolor="#ffffff"
     bordercolor="#666666"
     borderopacity="1.0"
     inkscape:pageopacity="0.0"
     inkscape:pageshadow="2"
     inkscape:zoom="1.4"
     inkscape:cx="498.92857"
     inkscape:cy="121.78571"
     inkscape:document-units="px"
     inkscape:current-layer="layer1"
     showgrid="true"
     inkscape:window-width="1920"
     inkscape:window-height="975"
     inkscape:window-x="0"
     inkscape:window-y="40"
     inkscape:window-maximized="1"
     inkscape:showpageshadow="2"
     inkscape:pagecheckerboard="0"
     inkscape:deskcolor="#d1d1d1">
    <inkscape:grid
       type="xygrid"
       id="grid6749"
       color="#3f3fff"
       opacity="0"
       spacingx="16"
       spacingy="12"
       originx="-1171.1607"
       originy="-711.25376" />
  </sodipodi:namedview>
  <metadata
     id="metadata6194">
    <rdf:RDF>
      <cc:Work
         rdf:about="">
        <dc:format>image/svg+xml</dc:format>
        <dc:type
           rdf:resource="http://purl.org/dc/dcmitype/StillImage" />
      </cc:Work>
    </rdf:RDF>
  </metadata>
  <g
     inkscape:label="Layer 1"
     inkscape:groupmode="layer"
     id="layer1"
     transform="translate(-566.81279,-352.5168)">
    <path
       id="path305"
       style="color:#000000;fill:#ffe763"
       d="m 568.81641,352.51758 -2.00391,14.6914 c 16.29419,4.52979 30.42928,25.38974 39.56055,56.87696 9.13127,31.48722 13.27121,72.31112 12.61132,112.73437 -0.65988,40.42326 -6.11908,80.54239 -15.57421,110.59766 -4.72757,15.02763 -10.4841,27.51682 -16.74414,36.13672 -6.26005,8.61989 -12.65504,13.07372 -18.98829,14.04883 l 1.13868,14.8789 h 645.05469 v -0.006 c 0.028,-2.3e-4 0.054,0.006 0.082,0.006 l -0.082,-14.96484 h -0.082 c -6.3438,0.0697 -12.2041,-3.2601 -18.3926,-11.20508 -6.1886,-7.94498 -11.9713,-20.23428 -16.668,-35.36719 -9.3934,-30.26581 -14.6486,-71.76883 -15.084,-113.60937 -0.4354,-41.84055 3.9433,-84.14153 13.1426,-116.05469 4.5997,-15.95658 10.4337,-29.28731 17.0527,-38.53906 6.6191,-9.25176 13.6072,-14.19113 21.1622,-15.34571 l -1.1309,-14.8789 z m 25.37109,14.96484 h 592.9043 c -1.887,2.05926 -3.7341,4.18898 -5.4238,6.55078 -8.1115,11.33781 -14.3536,26.07493 -19.2617,43.10157 -9.8163,34.05327 -14.1738,77.38457 -13.7266,120.35742 0.4472,42.97285 5.6925,85.46434 15.7558,117.88867 5.0317,16.21216 11.2172,29.94155 19.1524,40.12891 0.5716,0.73388 1.2486,1.30928 1.8457,2.00781 H 594.46875 c 1.46944,-1.66557 2.95447,-3.30607 4.30664,-5.16797 7.69213,-10.59183 13.86209,-24.39498 18.91016,-40.44141 10.09613,-32.09284 15.58469,-73.25061 16.26367,-114.84375 0.67898,-41.59314 -3.4506,-83.52569 -13.20117,-117.14843 -6.22313,-21.45913 -14.76762,-39.99045 -26.56055,-52.4336 z m 161.46484,46.29688 c -4.20583,0 -7.80237,2.37062 -10.06054,4.94726 -2.25818,2.57665 -3.76773,5.54348 -5.11524,8.94531 -2.69501,6.80367 -4.59395,15.50726 -6.11914,25.82032 -3.05038,20.62612 -4.36696,47.51541 -4.1914,74.45508 0.17555,26.93966 1.84526,53.82155 4.97656,74.39062 1.56565,10.28453 3.44667,18.94463 5.9707,25.66406 1.26202,3.35972 2.63758,6.25995 4.70313,8.82813 2.06554,2.56817 5.48193,5.1875 9.83593,5.1875 h 246.59966 0.7441 c 0.4257,0.0341 0.8416,0.0212 1.3164,0 h 0.1562 v -0.0195 c 0.6335,-0.0374 1.2654,-0.0551 1.9414,-0.23633 l -1.9141,-14.52344 c 0.038,0.007 0.162,-0.0143 0.1914,-0.008 1.8798,0.41904 1.9208,1.24136 1.4024,0.37109 -0.52,-0.87289 -1.3697,-2.85222 -2.1504,-5.54687 -1.5613,-5.3893 -3,-13.63057 -4.10156,-23.48828 -2.20319,-19.71542 -3.19094,-46.05543 -2.97657,-72.21875 0.21438,-26.16333 1.63227,-52.23745 4.10933,-71.40625 1.2386,-9.58441 2.7837,-17.49094 4.3536,-22.41797 0.7849,-2.46352 1.6358,-4.17839 1.9863,-4.69141 0.3505,-0.51302 -0.5643,0.91406 -2.8399,0.91406 V 413.7793 Z m 1.11133,14.96679 h 234.10938 c -1.97141,6.42214 -3.48894,14.549 -4.7461,24.27735 -2.60362,20.14781 -4.01628,46.58404 -4.23437,73.20117 -0.2181,26.61713 0.75977,53.32782 3.07031,74.00391 1.15527,10.33804 2.61167,19.12841 4.59961,25.99023 0.086,0.29677 0.19164,0.54233 0.2793,0.83203 H 757.2793 c -0.48782,-0.68118 -1.30628,-2.04775 -2.15625,-4.31055 -1.85707,-4.94386 -3.70546,-12.94657 -5.1836,-22.65625 -2.95627,-19.41935 -4.63474,-45.85614 -4.80664,-72.23437 -0.17189,-26.37823 1.16583,-52.80567 4.0293,-72.16797 1.43174,-9.68115 3.30356,-17.63842 5.22851,-22.49805 0.92971,-2.34707 1.87517,-3.83873 2.37305,-4.4375 z M 568.81711,360 c 82.22174,22.85765 71.51085,333.98962 0,344.99984 h 645.05369 c -73.4143,0.80669 -80.4751,-332.70132 0,-344.99984 z m 186.83507,61.26304 h 248.81702 c -18.86216,0 -20.91886,208.97223 -1.4031,213.27179 h 1.4031 c -0.48,0.12872 -0.9467,0.10178 -1.4031,0 H 755.65218 c -22.61309,0 -25.39266,-213.27179 0,-213.27179 z" />
  </g>
</svg>
