<?xml version="1.0" encoding="UTF-8" standalone="no"?>
<!-- Created with Inkscape (http://www.inkscape.org/) -->

<svg
   xmlns:dc="http://purl.org/dc/elements/1.1/"
   xmlns:cc="http://creativecommons.org/ns#"
   xmlns:rdf="http://www.w3.org/1999/02/22-rdf-syntax-ns#"
   xmlns:svg="http://www.w3.org/2000/svg"
   xmlns="http://www.w3.org/2000/svg"
   xmlns:sodipodi="http://sodipodi.sourceforge.net/DTD/sodipodi-0.dtd"
   xmlns:inkscape="http://www.inkscape.org/namespaces/inkscape"
   width="210mm"
   height="297mm"
   viewBox="0 0 210 297"
   version="1.1"
   id="svg7120"
   sodipodi:docname="Flag-Stamp.svg"
   inkscape:version="0.92.5 (2060ec1f9f, 2020-04-08)">
  <defs
     id="defs7114">
    <filter
       id="c">
      <feGaussianBlur
         id="feGaussianBlur6899"
         stdDeviation="7.3725" />
    </filter>
    <linearGradient
       gradientUnits="userSpaceOnUse"
       gradientTransform="matrix(386,-507,-507,-386,39.809,549.53)"
       y2="0.038167"
       y1="0.93709999"
       x2="0.97329003"
       x1="0.052049"
       id="d">
      <stop
         id="stop6902"
         offset="0"
         stop-color="#fff" />
      <stop
         id="stop6904"
         offset="1"
         stop-color="#f2f2f2" />
    </linearGradient>
    <clipPath
       clipPathUnits="userSpaceOnUse"
       id="clipPath7101">
      <rect
         style="opacity:0.92000002;fill:#0047ab;fill-opacity:1;stroke:none;stroke-width:6.90779018;stroke-miterlimit:4;stroke-dasharray:none;stroke-opacity:0.91372549"
         id="rect7103"
         width="74.713943"
         height="86.347672"
         x="7509.5"
         y="66.857147" />
    </clipPath>
  </defs>
  <sodipodi:namedview
     id="base"
     pagecolor="#ffffff"
     bordercolor="#666666"
     borderopacity="1.0"
     inkscape:pageopacity="0.0"
     inkscape:pageshadow="2"
     inkscape:zoom="0.49497475"
     inkscape:cx="671.44424"
     inkscape:cy="555.82025"
     inkscape:document-units="mm"
     inkscape:current-layer="layer1"
     showgrid="false"
     inkscape:window-width="1920"
     inkscape:window-height="975"
     inkscape:window-x="0"
     inkscape:window-y="40"
     inkscape:window-maximized="1" />
  <metadata
     id="metadata7117">
    <rdf:RDF>
      <cc:Work
         rdf:about="">
        <dc:format>image/svg+xml</dc:format>
        <dc:type
           rdf:resource="http://purl.org/dc/dcmitype/StillImage" />
      </cc:Work>
    </rdf:RDF>
  </metadata>
  <g
     inkscape:label="Layer 1"
     inkscape:groupmode="layer"
     id="layer1">
    <path
       style="fill:#000000;stroke-width:0.31999999"
       d="M 7498.5,110.00858 V 56.088576 h 48 48 v 53.920004 53.92 h -48 -48 z m 8.3378,51.32505 c 1.7264,-1.95115 2.1863,-1.92595 3.7523,0.20559 0.5959,0.81097 1.3098,1.42936 1.6502,1.42936 0.3301,0 1.2029,-0.72 1.9397,-1.6 0.7368,-0.88 1.5336,-1.6 1.7707,-1.6 0.2372,0 1.0383,0.72 1.7803,1.6 0.7421,0.88 1.6025,1.6 1.9122,1.6 0.3097,0 1.0212,-0.57845 1.5811,-1.28544 1.7666,-2.23052 2.1291,-2.26047 3.8338,-0.31676 1.6902,1.9272 2.3569,1.96876 3.5818,0.22327 0.7663,-1.0919 1.531,-1.79438 1.9714,-1.8109 0.1492,-0.006 0.9528,0.72726 1.7859,1.62857 1.7803,1.92628 2.4451,1.91914 3.7417,-0.0402 0.4479,-0.67678 1.0288,-1.3128 1.2909,-1.41338 0.6725,-0.25807 1.5855,0.30501 2.2107,1.36344 0.6647,1.1251 1.6116,1.73798 2.3195,1.50124 0.297,-0.0993 0.9585,-0.74741 1.4701,-1.4402 0.5115,-0.69279 1.134,-1.33786 1.3832,-1.43348 0.6507,-0.2497 1.5697,0.32694 2.1872,1.37244 1.1907,2.01566 2.4434,2.03714 3.8098,0.0653 0.475,-0.6854 1.0779,-1.32841 1.3398,-1.42892 0.7002,-0.26869 1.5631,0.30183 2.3278,1.53917 1.1579,1.8735 2.251,1.87948 3.5151,0.0192 1.4394,-2.11844 2.5468,-2.11958 3.8543,-0.004 1.1212,1.81412 1.8037,1.79479 3.5555,-0.10069 0.8331,-0.90131 1.6869,-1.63874 1.8975,-1.63874 0.4265,0 2.2397,1.8317 2.2397,2.26258 0,0.44673 1.2589,0.98753 1.8521,0.79563 0.3013,-0.0975 0.8957,-0.68915 1.3209,-1.31481 1.4672,-2.1593 2.2753,-2.15192 3.8459,0.0351 0.5615,0.78182 1.2767,1.42148 1.5895,1.42148 0.3127,0 1.2218,-0.72 2.0201,-1.6 1.8861,-2.0792 1.9233,-2.07681 3.7267,0.24 0.5822,0.748 1.3273,1.36 1.6558,1.36 0.3284,0 1.1388,-0.648 1.8008,-1.44 0.6621,-0.792 1.3554,-1.44 1.5407,-1.44 0.1853,0 0.8743,0.288 1.5311,0.64 0.6567,0.352 1.2629,0.64 1.347,0.64 0.084,0 0.3829,-0.44466 0.664,-0.98814 0.5103,-0.98692 0.5093,-0.98961 -0.7918,-2.19084 -1.6605,-1.53297 -1.6648,-2.28536 -0.02,-3.44027 1.9667,-1.38065 2.0116,-2.19622 0.208,-3.78331 -1.9295,-1.69788 -1.9393,-2.4147 -0.051,-3.74564 1.9381,-1.36608 1.9357,-2.26346 -0.01,-3.72917 -1.8822,-1.41798 -1.8822,-2.18728 0,-3.60526 1.9115,-1.44 1.9566,-2.44016 0.1668,-3.69662 -1.9637,-1.37849 -2.0086,-2.1889 -0.2058,-3.71062 1.9064,-1.60909 1.9523,-2.42334 0.2058,-3.64938 -1.9637,-1.37849 -2.0086,-2.1889 -0.2058,-3.71062 1.9064,-1.60909 1.9523,-2.42334 0.2058,-3.64938 -1.9637,-1.37849 -2.0086,-2.1889 -0.2058,-3.71062 1.9177,-1.61863 1.9665,-2.46836 0.2113,-3.67317 -0.7027,-0.48233 -1.3731,-1.22799 -1.4898,-1.65703 -0.1772,-0.65176 0.033,-0.99389 1.2802,-2.08 0.8458,-0.73667 1.4924,-1.57724 1.4924,-1.93993 0,-0.36269 -0.6466,-1.20326 -1.4924,-1.93993 -1.2469,-1.08611 -1.4574,-1.42824 -1.2802,-2.08 0.1167,-0.42904 0.7871,-1.1747 1.4898,-1.65703 1.7552,-1.20481 1.7064,-2.05454 -0.2113,-3.673172 -1.8028,-1.521715 -1.7579,-2.332131 0.2058,-3.710621 1.713,-1.202528 1.6791,-1.988205 -0.1569,-3.63799 -1.967,-1.767527 -1.9244,-2.071639 0.5852,-4.179142 1.0859,-0.911938 1.0859,-1.812293 0,-2.724232 -2.6715,-2.243437 -2.6617,-2.537915 0.1588,-4.794752 1.1062,-0.885084 0.8928,-1.983451 -0.5871,-3.022379 -1.972,-1.384372 -2.0038,-2.162805 -0.1536,-3.767838 1.3336,-1.156954 1.5077,-1.446401 1.3201,-2.194106 -0.1221,-0.48634 -0.7038,-1.174246 -1.3363,-1.580071 -0.616,-0.395306 -1.2115,-1.069769 -1.3233,-1.498808 -0.1688,-0.647601 0.05,-1.000823 1.289,-2.08 0.8209,-0.714961 1.4912,-1.568565 1.4898,-1.896897 0,-0.328332 -0.5926,-1.136322 -1.3138,-1.795534 l -1.3112,-1.198566 0.5464,-1.056568 c 0.5354,-1.035467 0.5312,-1.068329 -0.2088,-1.645419 -1.5852,-1.236082 -2.1612,-1.138362 -3.8109,0.646574 -0.8369,0.905561 -1.6523,1.646477 -1.8118,1.646477 -0.4479,0 -1.2037,-0.69824 -1.9712,-1.821075 -1.1829,-1.730649 -1.8505,-1.693378 -3.6015,0.201069 -1.7605,1.904858 -2.0727,1.880627 -3.7955,-0.294558 -1.1876,-1.499483 -1.8893,-1.606174 -2.9307,-0.445588 -2.1218,2.364701 -2.1662,2.397322 -2.8003,2.057993 -0.336,-0.179833 -1.069,-0.905415 -1.629,-1.612405 -0.5599,-0.70699 -1.2708,-1.285436 -1.5797,-1.285436 -0.3089,0 -1.2237,0.729903 -2.033,1.622006 -1.6945,1.867887 -2.0248,1.838217 -3.7473,-0.33657 -1.1876,-1.499483 -1.8893,-1.606174 -2.9307,-0.445588 -2.1523,2.398624 -2.1237,2.378789 -2.8989,2.015449 -0.4041,-0.189411 -1.1293,-0.909339 -1.6117,-1.59984 -0.4823,-0.690502 -1.1299,-1.255457 -1.4391,-1.255457 -0.3092,0 -1.2346,0.73145 -2.0565,1.625444 -1.7211,1.872068 -2.0549,1.842074 -3.7831,-0.340008 -0.5599,-0.70699 -1.2843,-1.285436 -1.6098,-1.285436 -0.3254,0 -1.1226,0.648 -1.7716,1.44 -1.5204,1.855474 -2.3443,1.891756 -3.5621,0.156884 -1.3795,-1.965063 -2.1887,-2.008965 -3.7609,-0.204048 -1.6034,1.840783 -2.3531,1.90117 -3.565,0.287164 -1.6304,-2.171272 -2.2808,-2.215359 -3.7248,-0.25248 -1.4488,1.969468 -2.4214,1.972688 -3.7701,0.01248 -1.3166,-1.913619 -2.1268,-1.915869 -3.5626,-0.0099 -1.4657,1.945595 -2.3631,1.947976 -3.7292,0.0099 -1.2757,-1.809902 -2.1979,-1.904609 -3.3854,-0.347699 -1.8914,2.479783 -2.3965,2.513402 -4.0223,0.267699 -1.2829,-1.772183 -2.1267,-1.791458 -3.502,-0.08 -1.1117,1.383285 -1.7017,1.529578 -3.3655,0.834394 -1.2051,-0.503518 -1.4906,-0.38881 -2.0166,0.810439 -0.3433,0.782458 -0.2778,0.919421 0.8865,1.855079 1.6811,1.350959 1.635,2.095426 -0.2301,3.720018 -1.2469,1.086111 -1.4574,1.428238 -1.2802,2.08 0.1167,0.429038 0.7871,1.174701 1.4898,1.657029 1.7293,1.186993 1.6838,1.973792 -0.2096,3.622971 -1.8049,1.572173 -1.761,2.381341 0.2041,3.760823 1.7465,1.226035 1.7005,2.040287 -0.2058,3.649378 -1.8028,1.521715 -1.7579,2.332131 0.2058,3.710622 1.7028,1.195416 1.7496,2.29853 0.1438,3.392199 -2.1563,1.468626 -2.1931,2.604715 -0.1308,4.033934 1.754,1.215469 1.7523,2.331082 -0.01,3.572362 -2.0533,1.450141 -2.0173,2.501104 0.1362,3.967798 1.5645,1.065558 1.5449,2.152438 -0.061,3.358058 -2.1713,1.63038 -2.2154,2.28078 -0.2525,3.72476 1.9424,1.42892 1.9453,2.32921 0.012,3.91301 -0.792,0.64899 -1.44,1.44869 -1.44,1.77713 0,0.32843 0.648,1.12814 1.44,1.77712 1.8854,1.54495 1.8854,2.29505 0,3.84 -0.792,0.64898 -1.44,1.44346 -1.44,1.7655 0,0.32204 0.648,1.12718 1.44,1.78921 1.868,1.5615 1.868,2.27851 0,3.84 -0.792,0.66203 -1.44,1.45403 -1.44,1.76 0,0.30597 0.648,1.09797 1.44,1.76 1.857,1.55226 1.95,2.62078 0.316,3.63067 -2.1655,1.33832 -2.2118,2.59904 -0.1458,3.96627 1.7626,1.16643 1.7625,2.32274 -3e-4,3.54434 -2.0625,1.42937 -2.0589,2.4269 0.014,3.86344 1.7309,1.19953 1.7266,2.29037 -0.014,3.49656 -2.0551,1.42423 -2.0577,2.42775 -0.01,3.84689 0.6777,0.46966 1.3145,1.06822 1.415,1.33014 0.2579,0.6722 -0.3054,1.58527 -1.3636,2.2104 -1.9642,1.1603 -2.0352,2.45776 -0.2028,3.70563 1.2157,0.82783 1.4019,1.66239 0.575,2.57619 -0.5983,0.66112 -0.4418,0.9192 1.0164,1.67567 1.4646,0.75978 1.8038,0.64599 3.3778,-1.13298 z m 8.6222,-6.66596 c 0,-0.25604 -0.2082,-0.32831 -0.56,-0.19437 -0.449,0.17094 -0.4807,0.13333 -0.16,-0.18976 0.308,-0.31026 0.4871,-0.31585 0.7787,-0.0243 0.2082,0.20827 0.2802,0.47707 0.16,0.59733 -0.1203,0.12026 -0.2187,0.0353 -0.2187,-0.18891 z m -5.12,-5.45909 c 0,-1.936 0.1081,-3.52 0.2401,-3.52 0.1321,0 1.2481,0.2135 2.48,0.47444 2.8263,0.59866 5.7229,0.62848 6.1916,0.0637 0.5096,-0.61397 -0.4242,-1.81819 -1.4098,-1.81819 -1.189,0 -0.9886,-1.06202 0.3381,-1.79228 0.9086,-0.50014 1.0138,-1.91077 0.1759,-2.35919 -0.5544,-0.29674 -0.7852,-0.22201 -1.4158,0.45847 -0.7816,0.84332 -1.3443,0.99083 -2.0565,0.53909 -0.3363,-0.21335 -0.3397,-0.43225 -0.018,-1.1391 0.8515,-1.86873 3.6864,-2.37481 5.3695,-0.95855 1.1637,0.97914 1.3243,2.48717 0.3928,3.6884 -0.5851,0.75467 -0.582,0.7711 0.2835,1.47722 l 0.8752,0.71406 1.0765,-0.96924 c 0.5921,-0.53308 1.6886,-1.40133 2.4366,-1.92943 0.748,-0.52811 1.36,-1.09728 1.36,-1.26483 0,-0.16754 -1.08,-0.30462 -2.4,-0.30462 h -2.4 v -0.92577 c 0,-1.20269 0.3561,-1.31423 4.1962,-1.31423 3.4814,0 3.9146,0.24006 3.2127,1.7804 l -0.3552,0.7796 5.0332,0.0114 c 3.1059,0.007 6.1358,0.20484 7.9131,0.51671 1.584,0.27795 5.184,0.55752 8,0.62126 2.816,0.0637 5.192,0.1315 5.28,0.15057 0.088,0.0191 0.88,0.0151 1.76,-0.009 1.7722,-0.0482 5.9935,1.08157 8.9548,2.39672 1.7884,0.79423 7.4425,4.09918 11.8425,6.92215 l 1.9174,1.23013 h -34.6374 -34.6373 z m 26.3167,-0.3353 c 0.4377,-0.54048 0.5633,-1.29429 0.5633,-3.38015 0,-2.65019 -0.01,-2.68455 -0.8,-2.68455 -0.7793,0 -0.8001,0.06 -0.8049,2.32 -0.01,2.66276 -0.2434,3.21899 -1.3113,3.06799 -0.7257,-0.1026 -0.7684,-0.23984 -0.8567,-2.74799 l -0.093,-2.64 h -0.947 -0.9471 v 2.41589 c 0,2.58109 0.533,4.13493 1.5157,4.4182 1.1713,0.33767 3.1133,-0.0682 3.681,-0.76939 z m 6.6681,0.15282 c 0.7762,-0.7024 0.7933,-2.11715 0.034,-2.80433 -0.3197,-0.2893 -1.1396,-0.7193 -1.822,-0.95556 -0.6824,-0.23626 -1.2969,-0.59788 -1.3655,-0.8036 -0.1837,-0.55117 1.3776,-0.46168 1.8487,0.10597 0.8931,1.07611 1.9206,0.40772 1.4117,-0.91835 -0.5676,-1.47907 -4.4156,-1.25455 -4.8007,0.28012 -0.3866,1.54011 0.079,2.07021 2.6811,3.04975 1.2386,0.46634 1.1946,1.06443 -0.089,1.2148 -0.5813,0.0681 -1.0098,-0.0758 -1.1912,-0.4 -0.3348,-0.59819 -1.8548,-0.68581 -1.8445,-0.10632 0.01,0.52104 0.9796,1.7103 1.5929,1.95234 0.8271,0.32643 2.9025,-0.0335 3.5448,-0.61482 z m 3.0246,-0.16709 c 0.1461,-0.46039 0.4945,-0.61043 1.4175,-0.61043 1.0384,0 1.2541,0.12113 1.4245,0.8 0.145,0.57785 0.416,0.8 0.9758,0.8 0.4263,0 0.8523,-0.12502 0.9467,-0.27782 0.095,-0.15279 -0.418,-1.73679 -1.1388,-3.52 -1.2194,-3.01667 -1.3724,-3.24218 -2.1993,-3.24218 -0.9212,0 -0.9169,-0.008 -3.4153,6.29201 -0.1565,0.39466 0.7561,0.71849 1.4073,0.49937 0.2133,-0.0718 0.475,-0.4052 0.5816,-0.74095 z m 1.0349,-3.02389 c 0.1732,-0.90635 0.1627,-0.90779 0.6836,0.0935 0.3253,0.62525 0.2948,0.72 -0.2323,0.72 -0.4774,0 -0.5737,-0.17347 -0.4513,-0.81346 z m 30.7592,-8.82116 c -7.1374,-4.73031 -10.4414,-6.28592 -14.1011,-6.63909 l -2.1377,-0.20629 0.597,-1.28 c 0.7476,-1.60289 0.6002,-1.65149 -2.9759,-0.98139 -4.4499,0.83384 -7.7661,0.67144 -12.8904,-0.63124 -8.9294,-2.26998 -13.6552,-1.39119 -15.8163,2.94108 -1.9029,3.81486 -3.4255,4.82962 -6.6919,4.46007 -1.9034,-0.21535 -6.2972,-1.4228 -10.9072,-2.99738 l -2.72,-0.92904 -0.085,-8.37105 c -0.058,-5.64794 0.023,-8.37105 0.2482,-8.37105 0.3859,0 8.5185,4.20976 10.3534,5.35931 3.9653,2.48427 10.9287,3.97075 13.8425,2.95497 1.1124,-0.38778 1.1858,-0.49415 4.2979,-6.23428 0.5726,-1.056 1.271,-2.18733 1.5521,-2.51406 2.0383,-2.36884 8.689,-2.64634 12.9071,-0.53854 3.6366,1.81722 6.1019,1.93622 12.8525,0.62038 1.7427,-0.33968 3.2257,-0.56031 3.2958,-0.49029 0.07,0.07 -0.2848,0.97799 -0.7884,2.0177 -1.474,3.04288 -1.4661,2.96247 -0.2727,2.76881 2.3723,-0.38498 8.8787,2.21299 12.7522,5.09194 l 1.8353,1.36406 v 7.92 c 0,4.356 -0.057,7.92 -0.1332,7.92 -0.076,0 -2.3343,-1.45558 -5.0186,-3.23462 z M 7533.22,110.20215 c -4.7076,-1.02527 -7.5914,-2.28876 -10.474,-4.58916 -0.9404,-0.75043 -2.2804,-1.80709 -2.9779,-2.34814 -1.5021,-1.16525 -5.3884,-3.540754 -7.7481,-4.736056 l -1.68,-0.850999 V 86.022071 c 0,-7.856278 0.1104,-11.723978 0.3388,-11.865108 0.1863,-0.115161 0.9089,0.185732 1.6058,0.668651 0.6968,0.48292 1.3383,0.806754 1.4254,0.719632 0.087,-0.08712 -0.072,-0.710308 -0.354,-1.384856 -0.4996,-1.19558 -0.4937,-1.24094 0.2358,-1.802018 0.4115,-0.31656 0.8562,-0.578767 0.9882,-0.58268 0.132,-0.0039 0.24,-0.151116 0.24,-0.327116 0,-0.176 -0.4415,-0.32 -0.981,-0.32 -1.4525,0 -2.138,-0.497409 -2.8552,-2.071672 -0.3541,-0.777268 -0.6438,-1.493116 -0.6438,-1.590772 0,-0.33929 5.3117,-0.177838 5.6616,0.172089 0.2529,0.25286 0.5305,0.25286 1.003,0 0.3593,-0.192305 1.8324,-0.349645 3.2735,-0.349645 2.395,0 2.5827,0.04523 2.1836,0.526159 -0.3888,0.468495 -0.3563,0.500656 0.2965,0.293463 0.4676,-0.148432 1.0039,-0.0553 1.4808,0.257186 0.8226,0.539013 1.141,0.402252 1.141,-0.490141 0,-0.551111 0.4267,-0.586667 7.04,-0.586667 7.537,0 7.4823,-0.01334 6.56,1.6 -0.5951,1.041095 -0.5885,1.218099 0.044,1.164444 0.352,-0.02987 0.6446,0.375215 0.8926,1.235556 0.2918,1.012272 0.4165,1.157395 0.5964,0.693828 0.1251,-0.322395 0.2274,-0.937959 0.2274,-1.36792 0,-0.549876 0.2498,-0.876727 0.8422,-1.101965 0.7614,-0.289456 0.7968,-0.373227 0.3687,-0.87208 -1.1083,-1.291582 -1.0375,-1.351863 1.5871,-1.351863 h 2.5157 l -0.2371,1.84 c -0.956,7.417352 -1.0289,8.452813 -0.6137,8.709408 1.2241,0.756556 12.5308,2.451846 14.1683,2.12435 0.8463,-0.169253 0.9095,-0.121817 0.7068,0.530179 -0.1224,0.393835 -0.3476,0.764063 -0.5003,0.82273 -0.1527,0.05867 -0.2777,0.245169 -0.2777,0.414451 0,0.169281 -0.6929,1.345281 -1.5397,2.613333 -0.8468,1.268052 -1.887,2.881549 -2.3114,3.585549 l -0.7718,1.28 0.7915,-0.566592 c 1.9825,-1.419289 3.5959,-1.890744 6.0714,-1.774061 2.7733,0.130721 5.0195,1.026539 4.866,1.940653 -0.1279,0.761638 1.1943,0.74071 3.8203,-0.06046 1.7033,-0.519667 5.9641,-1.553792 11.8737,-2.881815 0.66,-0.148318 1.2,-0.195818 1.2,-0.105555 0,0.09026 -0.484,0.974952 -1.0755,1.965974 -1.0268,1.720295 -3.4045,6.092695 -3.4045,6.260615 0,0.04393 0.612,0.09073 1.36,0.103997 0.748,0.01325 1.756,0.176506 2.24,0.362762 l 0.88,0.338646 v 7.35827 7.35828 l -1.1557,-0.78431 c -2.2875,-1.5523 -4.6853,-2.52142 -6.5771,-2.65827 -1.027,-0.0743 -1.8672,-0.17177 -1.8672,-0.21665 0,-0.11323 2.1764,-4.95974 2.623,-5.841 0.2005,-0.395731 0.2908,-0.793338 0.2006,-0.883562 -0.09,-0.09022 -2.4545,0.495207 -5.2538,1.300952 -6.9483,1.99994 -11.6498,2.32555 -11.6498,0.80681 0,-0.80426 -0.4849,-1.14055 -2.7364,-1.897538 -4.0143,-1.349744 -7.8426,-0.557427 -9.7436,2.016588 -0.5281,0.71511 -2.88,4.66313 -2.88,4.83461 0,0.28592 -2.3914,4.17161 -2.6936,4.37676 -0.6293,0.42714 -5.7419,0.20569 -8.3464,-0.36153 z m 1.7463,-5.6942 c -0.1469,-0.65123 -0.2108,-1.27499 -0.1421,-1.38614 0.069,-0.11115 0.7078,-0.46497 1.4203,-0.78626 1.518,-0.68451 1.6311,-1.04076 0.4155,-1.30887 -2.3354,-0.51508 -2.4251,-0.58923 -2.8167,-2.327912 -0.2068,-0.918269 -0.4576,-1.751174 -0.5573,-1.850896 -0.1,-0.09972 -0.4823,0.40864 -0.8502,1.129693 -0.7487,1.467517 -0.9145,1.52464 -2.3183,0.798672 -0.765,-0.395568 -0.954,-0.413802 -0.8294,-0.08 1.0804,2.893603 1.0737,2.789123 0.2748,4.295133 -0.4169,0.78584 -0.6724,1.51441 -0.5677,1.61906 0.1046,0.10465 0.9185,0.0156 1.8086,-0.19798 1.5932,-0.38219 1.6361,-0.37268 2.7565,0.61099 0.6259,0.54957 1.2584,0.92482 1.4055,0.83388 0.1472,-0.0909 0.1474,-0.69815 7e-4,-1.34937 z m 12.8833,-4.545006 c 0.4239,-0.161171 1.1574,-1.032643 1.6833,-2 0.5127,-0.942902 1.8457,-3.122928 2.9622,-4.844499 1.1166,-1.721575 1.9425,-3.271923 1.8354,-3.445219 -0.1071,-0.1733 -0.3378,-0.226672 -0.5126,-0.118608 -0.4425,0.273459 -4.985,0.229158 -5.4416,-0.05307 -0.569,-0.351642 -4.6954,-0.490419 -4.8967,-0.164682 -0.2985,0.483053 -1.4903,10.283165 -1.2899,10.607379 0.238,0.385145 4.6577,0.399745 5.6599,0.01869 z m -25.0643,-4.258128 c 0.1519,-0.759898 0.5001,-1.201792 1.2414,-1.575021 l 1.0303,-0.518781 -0.6137,-0.780153 c -0.5063,-0.64361 -0.5867,-1.140893 -0.4595,-2.841219 l 0.1543,-2.061066 -1.2534,1.389779 -1.2534,1.389783 -1.3567,-0.692106 c -0.7461,-0.380656 -1.4224,-0.626298 -1.5029,-0.545869 -0.08,0.08043 0.149,0.630474 0.5099,1.222323 0.8398,1.377517 0.8267,1.662346 -0.1416,3.087351 -0.44,0.647517 -0.8,1.272713 -0.8,1.389321 0,0.116612 0.54,0.08662 1.2,-0.06665 1.6874,-0.391859 1.6343,-0.411517 2.2225,0.822045 0.6077,1.274297 0.7294,1.248144 1.0228,-0.219741 z m 7.3947,-5.231414 c 0,-0.231933 0.288,-0.513104 0.64,-0.624826 0.7004,-0.222307 0.8482,-1.103802 0.2802,-1.671757 -0.2663,-0.26634 -0.2663,-0.627724 0,-1.39175 0.5615,-1.610678 0.4587,-2.203538 -0.2275,-1.311597 -0.5136,0.66767 -0.6165,0.692552 -0.992,0.24 -0.6645,-0.800665 -0.8467,-0.600027 -0.7144,0.786875 0.095,0.994509 -0.07,1.583616 -0.7161,2.559999 l -0.8393,1.26823 h 0.8046 c 0.7312,0 0.8056,0.123942 0.817,1.36 l 0.013,1.36 0.4674,-1.076739 c 0.2571,-0.592208 0.4675,-1.266503 0.4675,-1.498435 z m 7.2317,-2.69322 c -0.2083,-1.570872 -0.1998,-1.59122 0.7783,-1.844669 1.1778,-0.3052 1.1402,-0.663305 -0.1614,-1.537384 -0.83,-0.557393 -0.9928,-0.900741 -1.1381,-2.4 -0.1679,-1.733393 -0.1736,-1.741425 -0.6114,-0.869553 -0.4961,0.988077 -0.6678,1.052706 -1.2755,0.48 -0.3502,-0.329995 -0.3934,-0.151944 -0.2468,1.017356 0.1307,1.042506 0.013,1.740709 -0.4461,2.64 l -0.6237,1.222644 h 0.887 c 0.7249,0 1.0268,0.263368 1.651,1.44 1.013,1.909411 1.4524,1.854458 1.1867,-0.148394 z M 7518.98,82.828873 c 0,-1.262748 0.395,-1.647344 2,-1.947275 0.66,-0.123336 1.2,-0.340312 1.2,-0.482169 0,-0.141856 -0.648,-0.505393 -1.44,-0.807861 -1.3985,-0.534098 -1.44,-0.589628 -1.44,-1.927581 0,-0.757702 -0.157,-1.474671 -0.3489,-1.593263 -0.1919,-0.118593 -0.8759,0.286613 -1.52,0.900458 -1.0137,0.966062 -1.3324,1.095333 -2.3711,0.961727 -1.2945,-0.166513 -1.4662,0.0814 -0.7302,1.054505 0.6594,0.87178 0.6126,1.116147 -0.452,2.361788 -0.5173,0.605345 -0.8809,1.197265 -0.8079,1.315379 0.073,0.118114 0.8926,0.01286 1.8214,-0.233911 l 1.6887,-0.448664 0.9559,1.105268 c 1.1077,1.280847 1.4441,1.220659 1.4441,-0.258401 z m 11.0424,-4.674399 c 0.186,-1.101176 0.3572,-1.321816 1.1481,-1.48 1.1358,-0.227163 1.1541,-0.423288 0.1295,-1.385898 -0.6939,-0.651862 -0.8,-1.026925 -0.8,-2.82734 v -2.07578 l -1.0007,1.17156 c -1.0596,1.240427 -1.6632,1.402094 -2.9856,0.799579 -0.9996,-0.455428 -1.3944,-0.148615 -0.7851,0.610019 1.2421,1.546395 1.2644,1.858223 0.233,3.260658 -0.5383,0.731975 -0.9254,1.383717 -0.8602,1.448315 0.065,0.0646 0.7666,-0.0071 1.5586,-0.159353 1.2577,-0.241762 1.5109,-0.19325 2,0.38322 0.308,0.363013 0.56,0.860071 0.56,1.104573 0,0.990953 0.5985,0.35728 0.8024,-0.849553 z m 6.5655,-5.425898 c 0.1224,-0.088 0.2895,-1.24 0.3713,-2.56 0.082,-1.32 0.091,-2.148 0.021,-1.84 -0.1491,0.655219 -0.7446,0.727785 -1.3129,0.16 -0.3204,-0.320169 -0.3574,-0.131048 -0.1851,0.947612 0.1701,1.064421 0.073,1.589417 -0.4636,2.498291 -0.8315,1.409251 -0.8321,1.434097 -0.039,1.434097 0.352,0 0.6444,0.18 0.6497,0.4 0.01,0.22 0.1731,0.112 0.3727,-0.24 0.1996,-0.352 0.4631,-0.712 0.5855,-0.8 z m 35.6055,4.111215 c -0.8893,-0.889328 -3.6508,-1.796371 -5.2026,-1.708817 -0.6875,0.03879 -1.8199,0.352517 -2.5165,0.697167 l -1.2666,0.626636 1.4062,-2.688185 c 0.7733,-1.478502 1.4064,-2.856898 1.4067,-3.063101 3e-4,-0.255024 -0.588,-0.342141 -1.84,-0.272424 -2.3643,0.131654 -12.7546,-1.371267 -15.3606,-2.221875 -1.1,-0.359037 -2,-0.680528 -2,-0.714424 0,-0.0339 7.6757,-0.02216 17.0571,0.02609 9.3815,0.04824 17.5951,0.08772 18.2525,0.08772 h 1.1953 l -0.092,2.8 -0.092,2.8 -2.72,1.36238 c -1.496,0.749309 -3.656,1.592806 -4.8,1.874438 -1.144,0.281632 -2.2329,0.635683 -2.4197,0.786781 -0.2056,0.166239 -0.6032,0.01129 -1.0069,-0.392384 z"
       id="path7096"
       inkscape:connector-curvature="0"
       clip-path="url(#clipPath7101)"
       transform="matrix(2.8300256,0,0,3.4220779,-21251.678,-227.94461)" />
  </g>
</svg>
