<?xml version="1.0" encoding="UTF-8" standalone="no"?>
<!-- Created with Inkscape (http://www.inkscape.org/) -->

<svg
   xmlns:dc="http://purl.org/dc/elements/1.1/"
   xmlns:cc="http://creativecommons.org/ns#"
   xmlns:rdf="http://www.w3.org/1999/02/22-rdf-syntax-ns#"
   xmlns:svg="http://www.w3.org/2000/svg"
   xmlns="http://www.w3.org/2000/svg"
   xmlns:sodipodi="http://sodipodi.sourceforge.net/DTD/sodipodi-0.dtd"
   xmlns:inkscape="http://www.inkscape.org/namespaces/inkscape"
   width="1920px"
   height="1080px"
   viewBox="0 0 1920 1080"
   version="1.1"
   id="SVGRoot"
   inkscape:version="0.92.5 (2060ec1f9f, 2020-04-08)"
   sodipodi:docname="Letter-Postmark.svg">
  <defs
     id="defs6191" />
  <sodipodi:namedview
     id="base"
     pagecolor="#ffffff"
     bordercolor="#666666"
     borderopacity="1.0"
     inkscape:pageopacity="0.0"
     inkscape:pageshadow="2"
     inkscape:zoom="0.35"
     inkscape:cx="613.32183"
     inkscape:cy="731.88742"
     inkscape:document-units="px"
     inkscape:current-layer="layer1"
     showgrid="true"
     inkscape:window-width="1920"
     inkscape:window-height="975"
     inkscape:window-x="0"
     inkscape:window-y="40"
     inkscape:window-maximized="1">
    <inkscape:grid
       type="xygrid"
       id="grid6749"
       color="#3f3fff"
       opacity="0"
       spacingx="16"
       spacingy="12" />
  </sodipodi:namedview>
  <metadata
     id="metadata6194">
    <rdf:RDF>
      <cc:Work
         rdf:about="">
        <dc:format>image/svg+xml</dc:format>
        <dc:type
           rdf:resource="http://purl.org/dc/dcmitype/StillImage" />
        <dc:title></dc:title>
      </cc:Work>
    </rdf:RDF>
  </metadata>
  <g
     inkscape:label="Layer 1"
     inkscape:groupmode="layer"
     id="layer1">
    <g
       id="g7023"
       transform="matrix(3.2281823,0,0,3.2281823,-109.31458,-1238.6638)"
       style="fill:#808080;fill-opacity:0.92156863">
      <g
         id="g7005"
         style="fill:#808080;fill-opacity:0.92156863;fill-rule:evenodd">
        <g
           id="g7001"
           style="fill:#808080;fill-opacity:0.92156863;stroke-width:2.20000005;stroke-linejoin:round">
          <path
             id="path6997"
             d="m 486.89,421.29 c -70.235,-10.035 -135.38,38.824 -145.42,109.06 -10.035,70.235 38.824,135.38 109.06,145.42 70.235,10.035 135.38,-38.824 145.42,-109.06 10.035,-70.234 -38.824,-135.38 -109.06,-145.42 z m -0.506,3.5416 c 68.274,9.7546 115.78,73.095 106.02,141.37 -9.7546,68.274 -73.094,115.78 -141.37,106.02 -68.274,-9.7546 -115.78,-73.094 -106.02,-141.37 9.7546,-68.274 73.095,-115.78 141.37,-106.02 z"
             inkscape:connector-curvature="0"
             style="opacity:0.33500001;fill:#808080;fill-opacity:0.92156863" />
          <path
             id="path6999"
             d="m 489.26,387.81 c -89.835,-12.835 -173.15,49.672 -185.98,139.51 -12.835,89.835 49.646,173.15 139.48,185.98 89.835,12.835 173.17,-49.642 186.01,-139.48 12.835,-89.835 -49.668,-173.18 -139.5,-186.01 z m -0.506,3.5416 c 87.875,12.555 149,94.084 136.44,181.96 -12.555,87.875 -94.058,149 -181.93,136.44 -87.875,-12.555 -149,-94.058 -136.44,-181.93 12.555,-87.875 94.062,-149.03 181.94,-136.47 z"
             inkscape:connector-curvature="0"
             style="opacity:0.33500001;fill:#808080;fill-opacity:0.92156863" />
        </g>
        <path
           id="path7003"
           d="m 295.7,448.48 c -6.3612,-0.24124 -13.357,0.48908 -20.56,2.6776 -10.541,3.2027 -20.651,12.288 -31.08,23.047 -2.314,2.3874 -4.6275,4.8536 -6.9809,7.3635 -1.3378,1.4242 -2.6617,2.7676 -4.0164,4.2077 l 18.743,-5.4509 c -0.53845,0.52969 -0.99039,1.0841 -1.5301,1.6257 l 4.399,-1.3388 c 8.5651,-8.3368 16.989,-15.037 25.724,-17.692 14.413,-4.3793 27.461,-2.742 37.009,0 l 13.197,-3.8252 c -6e-5,3e-5 -1.6135,-0.24997 -3.347,-0.57376 l 1.3388,-0.4781 c 0,3e-5 -13.813,-8.8392 -32.896,-9.5629 z m -45.424,33.47 -18.456,5.2596 c -14.515,15.377 -30.177,30.852 -48.867,36.53 -20.246,6.1516 -37.17,-0.90369 -56.804,-6.5984 l -19.7,5.5465 c 30.878,3.6462 52.042,20.183 79.755,11.762 25.341,-7.6996 45.134,-33.496 64.072,-52.5 z m -143.83,40.738 c -0.11393,-0.0134 -0.26837,0.0131 -0.38252,0 l 19.604,-5.7377 c -3.5908,-1.0443 -7.277,-1.9197 -11.093,-2.7733 -1.1949,-0.26398 -2.4118,-0.53101 -3.6339,-0.76502 -13.294,-2.5744 -28.275,-3.2873 -46.572,1.7214 -14.359,3.9308 -23.271,10.08 -30.506,16.926 l 2.6776,10.806 4.1121,-1.1476 c 6.9744,-6.0308 15.946,-11.256 28.976,-14.822 12.74,-3.4876 23.79,-4.0916 33.853,-3.347 l 2.9645,-0.8607 z m 202.06,-31.749 c -6.3612,-0.24121 -13.262,0.39343 -20.465,2.582 -10.541,3.2027 -20.651,12.288 -31.08,23.047 -2.3141,2.3874 -4.6275,4.9492 -6.9809,7.4591 -1.3377,1.4242 -2.6617,2.7676 -4.0164,4.2077 l 18.743,-5.4509 c -0.53845,0.52972 -1.086,0.98852 -1.6257,1.5301 l 4.399,-1.2432 c 8.5651,-8.3368 17.085,-15.133 25.82,-17.787 14.413,-4.3793 27.461,-2.742 37.009,0 l 13.197,-3.7295 c -6e-5,-3e-5 -1.6135,-0.34561 -3.347,-0.6694 l 1.3388,-0.3825 c -3e-5,-3e-5 -13.908,-8.8392 -32.992,-9.563 z m -45.424,33.375 -18.456,5.2596 c -14.515,15.377 -30.082,30.852 -48.771,36.53 -20.246,6.1516 -37.17,-0.90369 -56.804,-6.5984 l -19.795,5.6421 c 30.878,3.6462 52.138,20.183 79.851,11.762 25.341,-7.6996 45.038,-33.591 63.976,-52.596 z m -143.83,40.834 c -0.11394,-0.0134 -0.17274,-0.0825 -0.28688,-0.0956 l 19.604,-5.6422 c -3.5908,-1.0442 -7.3726,-2.0153 -11.189,-2.8688 -1.1949,-0.26404 -2.4118,-0.53107 -3.6339,-0.76508 -13.294,-2.5743 -28.18,-3.1916 -46.476,1.817 -15.555,4.2582 -24.968,10.996 -32.418,18.552 l 2.6776,10.615 c 0.3808,-0.38538 0.56239,-0.86322 0.95629,-1.2432 l 4.9727,-1.4344 c 6.9744,-6.0309 16.042,-11.16 29.071,-14.727 12.74,-3.4876 23.79,-4.1872 33.853,-3.4427 l 2.8689,-0.7651 z m 202.16,-31.844 c -6.3612,-0.24121 -13.262,0.39349 -20.465,2.582 -10.541,3.2027 -20.651,12.288 -31.08,23.047 -2.3141,2.3874 -4.7231,4.9492 -7.0765,7.4591 -1.3378,1.4241 -2.6617,2.7676 -4.0164,4.2077 l 18.839,-5.4509 c -0.53842,0.52966 -1.086,0.98852 -1.6257,1.5301 l 4.399,-1.2432 c 8.5651,-8.3368 16.989,-15.133 25.724,-17.787 14.413,-4.3793 27.556,-2.7421 37.104,0 l 13.101,-3.7296 c -6e-5,-6e-5 -1.5178,-0.34564 -3.2514,-0.66943 l 1.3388,-0.3825 c -3e-5,0 -13.908,-8.8392 -32.992,-9.5629 z m -45.424,33.375 -18.456,5.2596 c -14.515,15.377 -30.177,30.852 -48.867,36.53 -20.246,6.1517 -37.074,-0.90375 -56.708,-6.5984 l -19.795,5.6422 c 30.878,3.6462 52.042,20.183 79.755,11.762 25.341,-7.6997 45.134,-33.591 64.072,-52.596 z m -143.83,40.834 c -0.11397,-0.0134 -0.26837,0.0131 -0.38252,0 l 19.7,-5.7378 c -3.5908,-1.0442 -7.3726,-2.0153 -11.189,-2.8689 -1.1949,-0.2641 -2.4118,-0.43536 -3.6339,-0.66937 -13.294,-2.5745 -28.18,-3.2873 -46.476,1.7213 -16.669,4.563 -26.69,11.836 -34.331,20.082 l 2.7733,11.284 c 0.9969,-1.092 1.6812,-2.2936 2.7732,-3.347 l 4.9727,-1.4344 c 6.9744,-6.0308 15.946,-11.256 28.976,-14.823 12.74,-3.4875 23.79,-4.0915 33.853,-3.347 l 2.9645,-0.8607 z m 202.16,-31.845 c -6.3612,-0.24127 -13.357,0.48908 -20.56,2.6776 -10.541,3.2027 -20.556,12.288 -30.984,23.047 -2.3141,2.3875 -4.7231,4.8536 -7.0766,7.3635 -1.3378,1.4242 -2.6617,2.7676 -4.0164,4.2077 l 18.839,-5.4509 c -0.53842,0.52972 -1.086,1.0841 -1.6257,1.6257 l 4.399,-1.3388 c 8.5651,-8.3369 16.989,-15.037 25.724,-17.692 14.413,-4.3792 27.461,-2.742 37.008,0 l 13.197,-3.8251 c -6e-5,0 -1.6135,-0.25 -3.347,-0.57379 l 1.3388,-0.4781 c -3e-5,0 -13.813,-8.8392 -32.896,-9.5629 z m -45.424,33.47 -18.456,5.2596 c -14.515,15.377 -30.177,30.852 -48.867,36.53 -20.246,6.1516 -37.074,-0.90369 -56.708,-6.5984 l -19.795,5.5464 c 30.878,3.6462 52.042,20.183 79.755,11.762 25.341,-7.6997 45.134,-33.496 64.072,-52.5 z m -143.83,40.738 c -0.11394,-0.0134 -0.26839,0.0131 -0.38252,0 l 19.604,-5.7377 c -3.5908,-1.0442 -7.277,-1.9197 -11.093,-2.7732 -1.1949,-0.26404 -2.4118,-0.53101 -3.6339,-0.76502 -13.294,-2.5744 -28.275,-3.2873 -46.572,1.7213 -17.243,4.7202 -27.465,12.339 -35.192,20.943 -0.32395,0.35925 -0.64916,0.69147 -0.9563,1.0519 l 2.9645,11.571 c 1.5522,-1.8282 2.7009,-3.8163 4.4946,-5.5465 l 4.9727,-1.4344 c 6.9744,-6.0308 15.946,-11.256 28.976,-14.823 12.74,-3.4874 23.79,-4.0915 33.853,-3.347 l 2.9645,-0.8607 z"
           inkscape:connector-curvature="0"
           style="opacity:0.5;fill:#808080;fill-opacity:0.92156863" />
      </g>
      <text
         id="text7007"
         xml:space="preserve"
         stroke-linecap="null"
         font-size="40.11"
         y="503.63782"
         x="337.90552"
         style="font-size:40.11000061px;font-family:'Bitstream Vera Sans';text-anchor:middle;fill:#808080;fill-opacity:0.92156863;stroke-linejoin:round;stroke-dasharray:none" />
    </g>
  </g>
</svg>
