<svg id="SvgjsSvg1006" width="288" height="288" xmlns="http://www.w3.org/2000/svg" version="1.1" xmlns:xlink="http://www.w3.org/1999/xlink" xmlns:svgjs="http://svgjs.com/svgjs"><defs id="SvgjsDefs1007"></defs><g id="SvgjsG1008" transform="matrix(1,0,0,1,0,0)"><svg xmlns="http://www.w3.org/2000/svg" width="288" height="288" viewBox="0 0 1920 1080"><path fill="#0047ab" d="M -2e-4,0 V 1080 H 1920.0002 V 0 Z m 59.4277,54 h 1801.1447 v 972 H 59.4275 Z" opacity=".92" class="colorgray svgShape"></path><path fill="#ececec" d="M 0,0 V 80.2461 L 80.2461,0 Z m 156.6133,0 -54,54 h 68.1055 l 54,-54 z m 144.4746,0 -54,54 h 67.6152 l 54,-54 z m 143.9844,0 -54,54 h 71.6172 l 54,-54 z m 147.9843,0 -54,54 h 67.6172 l 54,-54 z m 143.9844,0 -54,54 h 67.6172 l 54,-54 z m 143.9844,0 -54,54 h 67.6172 l 54,-54 z m 143.9844,0 -54,54 h 67.6172 l 54,-54 z m 143.9843,0 -54,54 h 67.6192 l 54,-54 z m 143.9864,0 -54,54 h 69.6152 l 54,-54 z m 145.9824,0 -54,54 h 71.6191 l 54,-54 z m 147.9863,0 -54,54 h 71.6153 l 54,-54 z m 147.9824,0 -54,54 h 75.6172 l 54,-54 z m 151.9844,0 -54,54 h 7.6563 v 61.9609 L 1920,56.5332 V 0 Z M 59.4277,97.1855 0,156.6133 v 68.1074 L 59.4277,165.2929 Z M 1920,132.9004 l -59.4277,59.4277 v 71.6191 L 1920,204.5195 Z M 59.4277,241.6601 0,301.0879 v 67.6172 L 59.4277,309.2773 Z M 1920,280.8867 l -59.4277,59.4277 v 71.6153 L 1920,352.5019 Z M 59.4277,385.6445 0,445.0722 v 71.6172 L 59.4277,457.2617 Z M 1920,428.8691 l -59.4277,59.4277 v 83.6153 L 1920,512.4843 Z M 59.4277,533.6289 0,593.0566 v 67.6172 L 59.4277,601.2461 Z M 1920,588.8535 l -59.4277,59.4277 v 77.6153 L 1920,666.4687 Z M 59.4277,677.6133 0,737.041 v 67.6172 L 59.4277,745.2304 Z M 1920,742.8359 l -59.4277,59.4277 v 75.6172 L 1920,818.4531 Z M 59.4277,821.5996 0,881.0273 v 67.6172 L 59.4277,889.2168 Z M 1920,894.8203 1860.5723,954.248 v 69.6172 L 1920,964.4375 Z M 59.4277,965.584 0,1025.0117 V 1080 h 12.627 l 54,-54 h -7.1993 z m 83.5684,60.416 -54,54 h 67.6152 l 54,-54 z m 143.9824,0 -54,54 h 69.6192 l 54,-54 z m 145.9863,0 -54,54 h 71.6153 l 54,-54 z m 147.9825,0 -54,54 h 71.6191 l 54,-54 z m 147.9863,0 -54,54 h 75.6152 l 54,-54 z m 151.9824,0 -54,54 h 69.6172 l 54,-54 z m 145.9844,0 -54,54 h 71.6172 l 54,-54 z m 147.9844,0 -54,54 h 71.6191 l 54,-54 z m 147.9863,0 -54,54 h 83.6133 l 54,-54 z m 159.9824,0 -54,54 h 77.6153 l 54,-54 z m 153.9824,0 -54,54 h 75.6172 l 54,-54 z m 151.9844,0 -54,54 h 69.6172 l 54,-54 z M 1920,1040.8047 1880.8047,1080 H 1920 Z" opacity=".92" class="colorececec svgShape"></path></svg></g></svg>