<?xml version="1.0" encoding="UTF-8" standalone="no"?>
<!-- Created with Inkscape (http://www.inkscape.org/) -->

<svg
   xmlns:dc="http://purl.org/dc/elements/1.1/"
   xmlns:cc="http://creativecommons.org/ns#"
   xmlns:rdf="http://www.w3.org/1999/02/22-rdf-syntax-ns#"
   xmlns:svg="http://www.w3.org/2000/svg"
   xmlns="http://www.w3.org/2000/svg"
   xmlns:sodipodi="http://sodipodi.sourceforge.net/DTD/sodipodi-0.dtd"
   xmlns:inkscape="http://www.inkscape.org/namespaces/inkscape"
   width="210mm"
   height="297mm"
   viewBox="0 0 210 297"
   version="1.1"
   id="svg7120"
   sodipodi:docname="Stamp-Background.svg"
   inkscape:version="0.92.5 (2060ec1f9f, 2020-04-08)">
  <defs
     id="defs7114">
    <filter
       id="c">
      <feGaussianBlur
         id="feGaussianBlur6899"
         stdDeviation="7.3725" />
    </filter>
    <linearGradient
       gradientUnits="userSpaceOnUse"
       gradientTransform="matrix(386,-507,-507,-386,39.809,549.53)"
       y2="0.038167"
       y1="0.93709999"
       x2="0.97329003"
       x1="0.052049"
       id="d">
      <stop
         id="stop6902"
         offset="0"
         stop-color="#fff" />
      <stop
         id="stop6904"
         offset="1"
         stop-color="#f2f2f2" />
    </linearGradient>
    <clipPath
       clipPathUnits="userSpaceOnUse"
       id="clipPath7101">
      <rect
         style="opacity:0.92000002;fill:#0047ab;fill-opacity:1;stroke:none;stroke-width:6.90779018;stroke-miterlimit:4;stroke-dasharray:none;stroke-opacity:0.91372549"
         id="rect7103"
         width="74.713943"
         height="86.347672"
         x="7509.5"
         y="66.857147" />
    </clipPath>
    <filter
       id="c-46">
      <feGaussianBlur
         id="feGaussianBlur8290"
         stdDeviation="7.3725" />
    </filter>
    <linearGradient
       id="d-4"
       x1="0.052049"
       x2="0.97329003"
       y1="0.93709999"
       y2="0.038167"
       gradientTransform="matrix(386,-507,-507,-386,39.809,549.53)"
       gradientUnits="userSpaceOnUse">
      <stop
         stop-color="#fff"
         offset="0"
         id="stop6902-3" />
      <stop
         stop-color="#f2f2f2"
         offset="1"
         id="stop6904-3" />
    </linearGradient>
  </defs>
  <sodipodi:namedview
     id="base"
     pagecolor="#ffffff"
     bordercolor="#666666"
     borderopacity="1.0"
     inkscape:pageopacity="0.0"
     inkscape:pageshadow="2"
     inkscape:zoom="0.49497475"
     inkscape:cx="671.44424"
     inkscape:cy="555.82025"
     inkscape:document-units="mm"
     inkscape:current-layer="layer1"
     showgrid="false"
     inkscape:window-width="1920"
     inkscape:window-height="975"
     inkscape:window-x="0"
     inkscape:window-y="40"
     inkscape:window-maximized="1" />
  <metadata
     id="metadata7117">
    <rdf:RDF>
      <cc:Work
         rdf:about="">
        <dc:format>image/svg+xml</dc:format>
        <dc:type
           rdf:resource="http://purl.org/dc/dcmitype/StillImage" />
        <dc:title></dc:title>
      </cc:Work>
    </rdf:RDF>
  </metadata>
  <g
     inkscape:label="Layer 1"
     inkscape:groupmode="layer"
     id="layer1">
    <g
       transform="matrix(0.33394732,0,0,0.35126312,8.2506397,3.7230205)"
       id="g8496">
      <g
         transform="matrix(1.25,0,0,-1.25,71.875,865.76)"
         id="g8488"
         style="fill:#454545;filter:url(#c-46)">
        <path
           inkscape:connector-curvature="0"
           d="m 364.86,526.53 c 0,9.979 8.175,18.289 19,20.12 v 27.76 c -10.825,1.831 -19,10.141 -19,20.12 0,9.979 8.175,18.289 19,20.12 v 29.38 h -24.228 c -1.474,-11.318 -9.988,-20 -20.272,-20 -10.284,0 -18.798,8.682 -20.272,20 h -27.456 c -1.474,-11.318 -9.988,-20 -20.272,-20 -10.284,0 -18.798,8.682 -20.272,20 H 227.48 c -1.832,-10.825 -10.141,-19 -20.12,-19 -9.979,0 -18.288,8.175 -20.12,19 h -27.76 c -1.831,-10.825 -10.141,-19 -20.12,-19 -9.979,0 -18.289,8.175 -20.12,19 H 97.48 c -1.831,-10.825 -10.141,-19 -20.12,-19 -9.979,0 -18.289,8.175 -20.12,19 H 29.48 c -1.831,-10.825 -10.141,-19 -20.12,-19 -9.979,0 -18.289,8.175 -20.12,19 h -24.38 v -32.38 c 10.825,-1.832 19,-10.141 19,-20.12 0,-9.979 -8.175,-18.288 -19,-20.12 v -25.426 c 12.279,-0.67602 22,-9.572 22,-20.454 0,-10.882 -9.721,-19.778 -22,-20.454 v -25.163 c 11.803,-1.089 21,-9.798 21,-20.383 0,-10.585 -9.197,-19.294 -21,-20.383 v -21.163 c 0.497,0.027 0.996,0.046 1.5,0.046 12.979,0 23.5,-9.178 23.5,-20.5 0,-11.322 -10.521,-20.5 -23.5,-20.5 -0.504,0 -1.003,0.019 -1.5,0.046 v -26.162 c 11.803,-1.09 21,-9.799 21,-20.384 0,-10.585 -9.197,-19.294 -21,-20.384 v -28.344 c 11.318,-1.474 20,-9.988 20,-20.272 0,-10.284 -8.682,-18.798 -20,-20.272 v -27.274 c 12.279,-0.676 22,-9.572 22,-20.454 0,-10.882 -9.721,-19.778 -22,-20.454 v -25.092 c 12.279,-0.67601 22,-9.572 22,-20.454 0,-10.882 -9.721,-19.778 -22,-20.454 V 80.03 h 22.228 c -0.14901,1.143 -0.22801,2.311 -0.22801,3.5 0,12.979 9.178,23.5 20.5,23.5 11.322,0 20.5,-10.521 20.5,-23.5 0,-1.189 -0.079,-2.357 -0.22799,-3.5 h 27.456 c -0.149,1.143 -0.228,2.311 -0.228,3.5 0,12.979 9.178,23.5 20.5,23.5 11.322,0 20.5,-10.521 20.5,-23.5 0,-1.189 -0.079,-2.357 -0.228,-3.5 h 21.456 c -0.149,1.143 -0.228,2.311 -0.228,3.5 0,12.979 9.178,23.5 20.5,23.5 11.322,0 20.5,-10.521 20.5,-23.5 0,-1.189 -0.079,-2.357 -0.228,-3.5 h 27.456 c -0.149,1.143 -0.228,2.311 -0.228,3.5 0,12.979 9.178,23.5 20.5,23.5 11.322,0 20.5,-10.521 20.5,-23.5 0,-1.189 -0.079,-2.357 -0.228,-3.5 h 23.344 c -0.075,0.821 -0.116,1.655 -0.116,2.5 0,12.979 9.178,23.5 20.5,23.5 11.322,0 20.5,-10.521 20.5,-23.5 0,-0.845 -0.041,-1.679 -0.116,-2.5 h 27.232 c -0.075,0.821 -0.116,1.655 -0.116,2.5 0,12.979 9.178,23.5 20.5,23.5 11.322,0 20.5,-10.521 20.5,-23.5 0,-0.845 -0.041,-1.679 -0.116,-2.5 h 26.116 v 27.116 c -11.803,1.09 -21,9.799 -21,20.384 0,10.585 9.197,19.294 21,20.384 v 27.232 c -11.803,1.09 -21,9.799 -21,20.384 0,10.585 9.197,19.294 21,20.384 v 24.232 c -11.803,1.09 -21,9.799 -21,20.384 0,10.585 9.197,19.294 21,20.384 v 27.232 c -11.803,1.09 -21,9.799 -21,20.384 0,10.585 9.197,19.294 21,20.384 v 23.233 c -11.803,1.089 -21,9.798 -21,20.383 0,10.585 9.197,19.294 21,20.383 v 27.234 c -11.803,1.089 -21,9.798 -21,20.383 0,10.585 9.197,19.294 21,20.383 v 25.497 c -10.825,1.831 -19,10.141 -19,20.12"
           id="path8486" />
      </g>
      <g
         transform="matrix(1.25,0,0,-1.25,631.88,865.76)"
         id="g8490" />
      <g
         transform="matrix(1.25,0,0,-1.25,71.875,865.76)"
         id="g8494">
        <path
           inkscape:connector-curvature="0"
           d="m 364.86,528.13 c 0,9.979 8.175,18.289 19,20.12 v 27.76 c -10.825,1.831 -19,10.141 -19,20.12 0,9.979 8.175,18.289 19,20.12 v 29.38 h -24.228 c -1.474,-11.318 -9.988,-20 -20.272,-20 -10.284,0 -18.798,8.682 -20.272,20 h -27.456 c -1.474,-11.318 -9.988,-20 -20.272,-20 -10.284,0 -18.798,8.682 -20.272,20 H 227.48 c -1.832,-10.825 -10.141,-19 -20.12,-19 -9.979,0 -18.288,8.175 -20.12,19 h -27.76 c -1.831,-10.825 -10.141,-19 -20.12,-19 -9.979,0 -18.289,8.175 -20.12,19 H 97.48 c -1.831,-10.825 -10.141,-19 -20.12,-19 -9.979,0 -18.289,8.175 -20.12,19 H 29.48 c -1.831,-10.825 -10.141,-19 -20.12,-19 -9.979,0 -18.289,8.175 -20.12,19 h -24.38 v -32.38 c 10.825,-1.832 19,-10.141 19,-20.12 0,-9.979 -8.175,-18.288 -19,-20.12 v -25.426 c 12.279,-0.67602 22,-9.572 22,-20.454 0,-10.882 -9.721,-19.778 -22,-20.454 v -25.163 c 11.803,-1.089 21,-9.798 21,-20.383 0,-10.585 -9.197,-19.294 -21,-20.383 v -21.163 c 0.497,0.027 0.996,0.046 1.5,0.046 12.979,0 23.5,-9.178 23.5,-20.5 0,-11.322 -10.521,-20.5 -23.5,-20.5 -0.504,0 -1.003,0.019 -1.5,0.046 v -26.162 c 11.803,-1.09 21,-9.799 21,-20.384 0,-10.585 -9.197,-19.294 -21,-20.384 v -28.344 c 11.318,-1.474 20,-9.988 20,-20.272 0,-10.284 -8.682,-18.798 -20,-20.272 v -27.274 c 12.279,-0.676 22,-9.572 22,-20.454 0,-10.882 -9.721,-19.778 -22,-20.454 v -25.092 c 12.279,-0.67601 22,-9.572 22,-20.454 0,-10.882 -9.721,-19.778 -22,-20.454 V 81.63 h 22.228 c -0.14901,1.143 -0.22801,2.311 -0.22801,3.5 0,12.979 9.178,23.5 20.5,23.5 11.322,0 20.5,-10.521 20.5,-23.5 0,-1.189 -0.079,-2.357 -0.22799,-3.5 h 27.456 c -0.149,1.143 -0.228,2.311 -0.228,3.5 0,12.979 9.178,23.5 20.5,23.5 11.322,0 20.5,-10.521 20.5,-23.5 0,-1.189 -0.079,-2.357 -0.228,-3.5 h 21.456 c -0.149,1.143 -0.228,2.311 -0.228,3.5 0,12.979 9.178,23.5 20.5,23.5 11.322,0 20.5,-10.521 20.5,-23.5 0,-1.189 -0.079,-2.357 -0.228,-3.5 h 27.456 c -0.149,1.143 -0.228,2.311 -0.228,3.5 0,12.979 9.178,23.5 20.5,23.5 11.322,0 20.5,-10.521 20.5,-23.5 0,-1.189 -0.079,-2.357 -0.228,-3.5 h 23.344 c -0.075,0.82101 -0.116,1.655 -0.116,2.5 0,12.979 9.178,23.5 20.5,23.5 11.322,0 20.5,-10.521 20.5,-23.5 0,-0.84499 -0.041,-1.679 -0.116,-2.5 h 27.232 c -0.075,0.82101 -0.116,1.655 -0.116,2.5 0,12.979 9.178,23.5 20.5,23.5 11.322,0 20.5,-10.521 20.5,-23.5 0,-0.84499 -0.041,-1.679 -0.116,-2.5 h 26.116 v 27.116 c -11.803,1.09 -21,9.799 -21,20.384 0,10.585 9.197,19.294 21,20.384 v 27.232 c -11.803,1.09 -21,9.799 -21,20.384 0,10.585 9.197,19.294 21,20.384 v 24.232 c -11.803,1.09 -21,9.799 -21,20.384 0,10.585 9.197,19.294 21,20.384 v 27.232 c -11.803,1.09 -21,9.799 -21,20.384 0,10.585 9.197,19.294 21,20.384 v 23.233 c -11.803,1.089 -21,9.798 -21,20.383 0,10.585 9.197,19.294 21,20.383 v 27.234 c -11.803,1.089 -21,9.798 -21,20.383 0,10.585 9.197,19.294 21,20.383 v 25.497 c -10.825,1.831 -19,10.141 -19,20.12"
           id="path8492"
           style="fill:url(#d-4)" />
      </g>
    </g>
  </g>
</svg>
